<svg xmlns="http://www.w3.org/2000/svg" fill="none" viewBox="0 0 68 58" height="58" width="68">
<path fill="white" d="M61.7137 10.7821C60.9 10.6935 58.688 10.6052 57.4145 10.0742C54.7938 8.9945 51.7151 9.15383 49.4311 12.2688C48.2996 13.8086 47.7849 14.6226 46.8653 15.6316C43.4668 12.5697 37.6084 8.88834 33.2014 6.30429C30.4406 4.67601 27.4849 3.5433 24.4232 2.90618C20.6179 2.12752 14.8485 -0.102492 14.6365 0.00366345C16.6726 1.54339 18.2999 4.62302 20.6898 5.08322C21.8214 5.31313 22.618 5.57861 23.5736 6.90602C24.849 8.65824 25.8386 8.44593 27.5208 8.81757C28.3174 8.9945 29.8218 12.1271 30.9193 12.3926C32.2117 12.7113 33.1673 13.6846 33.786 14.5342C29.5209 14.4989 24.7071 14.8705 20.1051 16.1801C7.50468 19.7553 0 19.0297 0 19.0297C0 19.0297 11.0261 23.6666 17.2743 23.0117C23.5206 22.357 25.5567 26.3568 29.485 25.7729C34.2989 25.0472 37.6273 25.2949 39.2906 25.5428C38.9897 26.1799 38.7059 26.9056 38.352 27.6489C32.5826 39.5422 27.5908 38.5159 22.0163 44.3563C17.7152 45.6837 13.6279 47.4535 10.1935 50.6393C14.6006 48.6216 23.6266 44.4271 28.0336 42.4095C28.0336 42.4095 28.0166 42.4095 27.9996 42.4095C29.0782 41.914 30.1586 41.4006 31.2202 40.852C29.0952 42.9759 27.4508 45.8606 27.3429 48.9403C25.9635 51.3472 24.7071 54.4091 24.3532 57.8781C26.1054 54.3029 28.3534 50.1083 30.3175 46.2678C31.4851 43.9847 33.7861 41.8432 35.3793 39.8077C37.3435 37.2946 39.1317 35.2239 42.0344 33.7726C43.9096 32.8346 45.8037 31.9674 47.5559 30.8169C52.3168 27.6842 54.9186 22.9056 55.1476 17.2067C55.1476 17.2067 55.8212 12.7288 61.7856 10.9236C61.8745 10.906 61.8556 10.7821 61.7856 10.7643L61.7137 10.7821ZM18.3699 2.07435C26.6012 3.41955 30.8833 8.88834 30.8833 8.88834C26.1395 5.72034 18.3699 2.07435 18.3699 2.07435ZM31.1313 43.8431L31.0782 43.8785C31.0782 43.8785 31.2031 43.7014 31.2561 43.613C31.2031 43.6838 31.1672 43.7546 31.1313 43.8253V43.8431ZM19.3444 18.0563C30.9893 14.5696 37.8752 19.118 37.8752 19.118C32.6715 17.4898 19.3444 18.0563 19.3444 18.0563ZM30.4405 15.189C38.405 14.0741 43.9625 19.9676 43.9625 19.9676C39.8753 17.2774 30.4405 15.189 30.4405 15.189ZM53.3084 11.1715C52.9186 11.1006 51.963 12.2511 51.7321 12.5343C51.2023 13.2244 50.7765 13.9855 50.3867 14.7643C48.2107 19.0297 46.0326 23.4365 42.6171 26.87C41.1488 28.3392 39.5385 29.6488 37.8752 30.8876C38.2631 30.4806 38.9178 29.8789 39.3076 29.4719C40.547 28.1444 41.6805 26.7109 42.7061 25.2063C44.0156 23.2772 45.0771 21.2065 46.1216 19.118C47.1302 17.0827 48.3166 14.9413 49.715 13.1361C51.3612 10.9944 53.4844 9.50787 56.2451 10.2865C55.9272 10.959 54.0331 11.2953 53.3084 11.1715Z"></path>
<path fill="white" d="M59.3422 28.0734C60.2278 27.7372 61.1663 27.6132 62.014 27.2416C61.5372 26.9939 61.2533 27.0115 60.9354 27.0293C60.3337 27.0647 59.7679 27.224 59.2002 27.3831C59.4841 27.0293 59.855 26.746 60.1748 26.4275C60.6705 25.9142 61.0585 25.3124 61.4483 24.7285C61.7681 24.2505 62.1029 23.7727 62.4038 23.2949C62.4038 23.2771 62.5987 22.9939 62.5817 22.9763C62.3509 22.7993 62.2808 22.9409 62.1029 23.1178C61.944 23.3125 61.768 23.4894 61.6072 23.6842C60.6346 24.7639 59.643 25.8788 58.4926 26.7814C54.5983 29.7903 50.1932 32.1264 45.9091 34.5334C43.8731 35.6839 41.555 36.6572 39.7858 38.2325C39.343 39.4536 39.8218 40.1439 39.8218 40.2678C41.75 38.3209 44.0509 37.0289 46.4219 35.737C52.7061 32.268 53.2548 31.206 56.8652 29.2769C57.6618 28.8523 58.4926 28.4451 59.3422 28.1266V28.0734ZM49.8564 32.8521C50.3692 32.3034 51.0409 32.091 51.7316 31.8609C51.1298 32.2326 50.617 32.7813 49.8564 32.8521Z"></path>
<path fill="white" d="M60.2817 20.8707C59.9997 19.1187 59.5739 17.3843 59.2031 15.6498C57.0081 19.0479 56.2814 22.6761 57.6987 26.4813C59.6458 25.3486 60.6715 23.3309 60.2817 20.8707ZM58.6903 19.2603C58.9911 22.039 58.8303 23.6673 58.1756 24.4636C58.0696 23.6849 58.4424 20.0035 58.6903 19.2603Z"></path>
<path fill="white" d="M66.6546 23.1533C65.4512 23.1533 64.2837 23.5427 63.2751 24.1798C62.7604 24.4983 62.2836 24.8877 61.8578 25.3301C61.7708 25.4187 60.9382 26.4982 60.9211 26.4982C61.0801 26.516 61.2561 26.6221 61.398 26.6753C61.7348 26.7815 62.0716 26.87 62.4066 26.9762C63.0972 27.2063 63.8579 27.2239 64.5656 26.9938C64.6016 26.9938 64.6375 26.9762 64.6716 26.9584C65.5401 26.6575 66.2308 26.0028 66.7796 25.2771C67.0615 24.9055 67.2923 24.5161 67.5043 24.1266C67.5402 24.0559 67.9281 23.2594 68 23.2772C68 23.2772 67.0975 23.1533 66.6187 23.1533H66.6546ZM62.5125 25.8965L66.5128 23.9143C65.3623 24.9938 64.0358 25.6488 62.5125 25.8965Z"></path>
<path fill="white" d="M61.2008 31.6131C60.0333 31.3652 58.9528 30.9052 57.7493 30.7813C56.5988 30.6573 54.7047 30.7813 54.033 31.8962C54.1389 31.7193 56.0331 32.9405 56.209 33.0467C57.8023 34.0025 59.5545 33.8961 60.9529 32.6219C61.2708 32.3388 61.6246 32.1087 62.1204 31.7371C61.9974 31.8254 61.3597 31.6307 61.2008 31.5953V31.6131ZM55.8741 31.6131C57.2195 31.5069 58.476 31.914 59.7665 32.1617C58.457 32.3918 56.7937 32.1263 55.8741 31.6131Z"></path>
<path fill="white" d="M62.3514 22.1617C62.5993 22.1087 62.8643 22.1087 63.1121 22.0379C63.6439 21.914 64.1566 21.6661 64.5824 21.3298C65.2541 20.7813 65.6969 20.0024 65.8918 19.1706C66.0867 18.3212 65.9808 17.4893 65.8199 16.6397V16.5867C65.538 17.2061 64.8832 17.7194 64.3875 18.1972C63.7138 18.8343 62.9891 19.4361 62.3685 20.1264C62.2455 20.2679 62.1395 20.4096 62.0335 20.5512C61.9806 20.622 61.9446 20.6927 61.9086 20.7635C61.6078 21.2945 61.5018 21.8786 61.5907 22.4803C61.5907 22.4272 62.2814 22.1971 62.3514 22.1617ZM64.6354 18.9937C63.8387 19.7193 63.2181 20.6219 62.3155 21.4362C62.9002 20.3033 63.7498 19.6486 64.6354 18.9937Z"></path>
</svg>
