<?xml version="1.0" encoding="UTF-8"?> <svg xmlns="http://www.w3.org/2000/svg" width="1000" height="1000" viewBox="0 0 1000 1000" fill="none"><g clip-path="url(#clip0_2025_567)"><path d="M812.5 0H187.5C84.125 0 0 84.125 0 187.5V812.5C0 915.875 84.125 1000 187.5 1000H812.5C915.875 1000 1000 915.875 1000 812.5V187.5C1000 84.125 915.875 0 812.5 0ZM958.333 187.5V208.333H625V41.6667H812.5C892.917 41.6667 958.333 107.083 958.333 187.5ZM416.667 41.6667H583.333V312.5C583.333 346.958 555.292 375 520.833 375H479.167C444.708 375 416.667 346.958 416.667 312.5V41.6667ZM187.5 41.6667H375V208.333H41.6667V187.5C41.6667 107.083 107.083 41.6667 187.5 41.6667ZM812.5 958.333H187.5C107.083 958.333 41.6667 892.917 41.6667 812.5V250H375V312.5C375 369.958 421.708 416.667 479.167 416.667H520.833C578.292 416.667 625 369.958 625 312.5V250H958.333V812.5C958.333 892.917 892.917 958.333 812.5 958.333ZM833.333 812.5C833.333 824 824 833.333 812.5 833.333H645.833C634.333 833.333 625 824 625 812.5C625 801 634.333 791.667 645.833 791.667H812.5C824 791.667 833.333 801 833.333 812.5Z" fill="#EA766A"></path></g><defs><clipPath id="clip0_2025_567"><rect width="1000" height="1000" fill="white"></rect></clipPath></defs></svg> 