<?xml version="1.0" encoding="UTF-8"?> <svg xmlns="http://www.w3.org/2000/svg" width="1000" height="1000" viewBox="0 0 1000 1000" fill="none"><path d="M812.5 125H187.5C84.125 125 0 209.125 0 312.5V687.5C0 790.875 84.125 875 187.5 875H812.5C915.875 875 1000 790.875 1000 687.5V312.5C1000 209.125 915.875 125 812.5 125ZM958.333 687.5C958.333 767.917 892.917 833.333 812.5 833.333H187.5C107.083 833.333 41.6667 767.917 41.6667 687.5V312.5C41.6667 232.083 107.083 166.667 187.5 166.667H812.5C892.917 166.667 958.333 232.083 958.333 312.5V687.5ZM750 375V479.167H812.5C824 479.167 833.333 488.5 833.333 500C833.333 511.5 824 520.833 812.5 520.833H750V625H812.5C824 625 833.333 634.333 833.333 645.833C833.333 657.333 824 666.667 812.5 666.667H750C727 666.667 708.333 648 708.333 625V375C708.333 352 727 333.333 750 333.333H812.5C824 333.333 833.333 342.667 833.333 354.167C833.333 365.667 824 375 812.5 375H750ZM583.333 375V479.167H645.833C657.333 479.167 666.667 488.5 666.667 500C666.667 511.5 657.333 520.833 645.833 520.833H583.333V625H645.833C657.333 625 666.667 634.333 666.667 645.833C666.667 657.333 657.333 666.667 645.833 666.667H583.333C560.333 666.667 541.667 648 541.667 625V375C541.667 352 560.333 333.333 583.333 333.333H645.833C657.333 333.333 666.667 342.667 666.667 354.167C666.667 365.667 657.333 375 645.833 375H583.333ZM514.417 437.5C514.417 380.042 467.667 333.333 410.25 333.333H375C352.042 333.333 333.333 352 333.333 375V645.833C333.333 657.333 342.667 666.667 354.167 666.667C365.667 666.667 375 657.333 375 645.833V541.667H410.25C414.708 541.667 418.917 540.917 423.208 540.375L472.292 654.125C475.708 661.958 483.375 666.708 491.417 666.708C494.167 666.708 497 666.167 499.667 665C510.208 660.458 515.083 648.208 510.542 637.625L462.792 526.958C493.5 508.833 514.417 475.75 514.417 437.542V437.5ZM410.25 500H375V375H410.25C444.708 375 472.75 403.042 472.75 437.5C472.75 471.958 444.708 500 410.25 500ZM208.333 375V479.167H270.833C282.333 479.167 291.667 488.5 291.667 500C291.667 511.5 282.333 520.833 270.833 520.833H208.333V645.833C208.333 657.333 199 666.667 187.5 666.667C176 666.667 166.667 657.333 166.667 645.833V375C166.667 352 185.375 333.333 208.333 333.333H270.833C282.333 333.333 291.667 342.667 291.667 354.167C291.667 365.667 282.333 375 270.833 375H208.333Z" fill="#EA766A"></path></svg> 