<svg xmlns="http://www.w3.org/2000/svg" fill="none" viewBox="0 0 211 32" height="32" width="211">
<path fill="#237A67" d="M10.7984 20.74L10.3463 19.8359H4.72622L3.6995 21.8969C3.32023 22.6324 4.18988 23.1151 4.61895 23.2569V23.4906H0.332031V23.2569C0.795584 23.1151 1.53114 22.709 2.12112 21.5559L6.66472 12.7142C6.68771 12.4 5.68398 12.0897 5.66099 12.1204V11.8714H8.68367L13.641 21.6632C14.1812 22.7244 14.9627 23.0998 15.4033 23.2569V23.4906H10.3732V23.2569C10.7754 23.1151 11.8404 22.5558 11.2658 21.6019C11.0819 21.2916 10.9478 21.0234 10.8022 20.7438L10.7984 20.74ZM5.32769 18.6789H9.78318L7.58034 14.2274L5.32769 18.6789Z"></path>
<path fill="#237A67" d="M19.1979 13.5723C19.4201 12.9172 18.8072 12.3234 18.2555 12.1204V11.8714H22.2206L26.0401 20.7438L29.7371 11.8714H33.6792V12.1204C33.116 12.3387 32.4916 12.8367 32.6985 13.5263L34.8783 21.1192C35.3304 22.6669 35.905 23.0883 36.3456 23.2569V23.4906H32.1238V23.2569C32.8479 23.1304 32.982 22.5405 32.7253 21.6785L30.5224 14.3385L26.6301 23.4906H24.7567L20.8759 14.3231L18.6462 21.6939C18.4126 22.4754 18.4126 23.0232 19.1864 23.2569V23.4906H15.6351V23.2569C16.271 23.1304 16.6618 22.6631 17.0181 21.3682L19.1979 13.5761V13.5723Z"></path>
<path fill="#237A67" d="M38.8622 13.5876C38.8622 12.6644 38.5212 12.3387 37.8968 12.1204V11.8714H44.9228C47.777 11.8714 49.1944 13.2773 49.1944 15.0587C49.1944 16.8401 47.7501 18.246 44.9228 18.246H41.1646V21.8394C41.1646 22.7129 41.4826 23.0577 42.13 23.2607V23.4944H37.8929V23.2607C38.5174 23.0577 38.8583 22.7129 38.8583 21.8394V13.5914L38.8622 13.5876ZM41.6282 12.9785C41.3447 12.9785 41.1646 13.0091 41.1646 13.4957V17.135H44.5934C45.9534 17.135 46.5778 16.1045 46.5778 15.0587C46.5778 14.0128 45.9534 12.9823 44.5934 12.9823H41.632L41.6282 12.9785Z"></path>
<path fill="#237A67" d="M51.979 13.5876C51.979 12.6644 51.6495 12.3387 51.0136 12.1204V11.8714H58.0397C60.8938 11.8714 62.2998 13.2773 62.2998 15.0587C62.2998 16.729 60.9053 18.246 58.1852 18.246L61.6868 21.9773C62.3955 22.7435 63.0353 23.1036 63.3878 23.2569V23.4906H60.1697L54.5611 17.4454V17.1312H57.7332C59.0664 17.1312 59.7023 16.1007 59.7023 15.0549C59.7023 14.009 59.0664 13.0091 57.7332 13.0091H54.7565C54.4615 13.0091 54.2776 13.0245 54.2776 13.511V21.8356C54.2776 22.709 54.5956 23.0538 55.243 23.2569V23.4906H51.0059V23.2569C51.6419 23.0538 51.9713 22.709 51.9713 21.8356V13.5876H51.979Z"></path>
<path fill="#237A67" d="M69.6002 11.8714V12.1204C68.9757 12.3387 68.6347 12.6988 68.6347 13.5876V22.0846C68.6347 22.8508 68.991 23.0692 69.6002 23.2569V23.4906H65.363V23.2569C65.9377 23.0692 66.317 22.8355 66.317 22.0846V13.5876C66.317 12.6644 65.999 12.3541 65.363 12.1204V11.8714H69.6002Z"></path>
<path fill="#237A67" d="M78.7238 11.6015C75.0269 11.6015 71.5368 13.9307 71.5368 17.8498C71.5368 21.7688 74.9656 23.7686 78.5285 23.7686C82.0913 23.7686 85.7385 21.4585 85.7385 17.5203C85.7385 13.5822 82.2982 11.6015 78.7238 11.6015ZM78.7238 22.6614C76.1302 22.6614 74.1458 20.5544 74.1458 17.5241C74.1458 14.6816 76.0191 12.7278 78.5055 12.7278C81.1144 12.7278 83.1219 14.8348 83.1219 17.8498C83.1219 20.8647 81.1987 22.6614 78.7277 22.6614H78.7238Z"></path>
<path fill="#237A67" d="M9.06091 8.23111C8.17212 9.06625 7.49019 10.0814 7.13774 10.7404H8.50542C9.43636 9.729 11.1641 8.49927 12.3364 8.23111H9.06091Z"></path>
<path fill="white" d="M8.18175 14.7092L10.2045 18.7278H10.5646L8.36181 14.3567L8.18175 14.7092Z"></path>
<path fill="white" d="M12.0362 21.5968C11.8523 21.2903 11.7182 21.0298 11.5727 20.754L11.1206 19.8652H10.7643L11.2164 20.754C11.3619 21.0298 11.496 21.2903 11.6799 21.5968C12.2546 22.5315 11.1474 23.2211 11.1474 23.2211C11.5497 23.0832 12.6147 22.5315 12.04 21.5968H12.0362Z"></path>
<path fill="white" d="M2.89824 21.5508L7.43802 12.8738C7.461 12.5673 6.45728 12.2608 6.43429 12.2915C6.43429 12.2915 7.10472 12.5673 7.0779 12.8738L2.53813 21.5508C1.95198 22.6848 1.10915 23.2211 1.10915 23.2211C1.57271 23.0832 2.30826 22.6848 2.89441 21.5508H2.89824Z"></path>
<path fill="white" d="M17.7873 21.3687L19.9634 13.7184C20.1856 13.0748 19.5726 12.4925 19.0209 12.2933C19.0209 12.2933 19.8254 13.0748 19.6032 13.7184L17.4272 21.3687C17.0709 22.6406 16.4043 23.2229 16.4043 23.2229C17.0403 23.1003 17.431 22.6406 17.7873 21.3687Z"></path>
<path fill="white" d="M26.6438 21.1285L30.3408 12.4208H29.9806L26.4638 20.7148L26.6438 21.1285Z"></path>
<path fill="white" d="M33.4851 21.6736L31.2822 14.4676L31.0715 14.9541L33.125 21.6736C33.3816 22.5164 32.8836 23.2213 32.8836 23.2213C33.6038 23.0987 33.7418 22.5164 33.4813 21.6736H33.4851Z"></path>
<path fill="white" d="M21.4949 14.9346L25.165 23.4508H25.5251L21.6443 14.4519L21.4949 14.9346Z"></path>
<path fill="white" d="M44.9852 17.3296H45.3415C46.7015 17.3296 47.3221 16.2339 47.3221 15.1229C47.3221 14.012 46.6976 12.9163 45.3415 12.9163H44.9852C46.3413 12.9163 46.9658 14.0273 46.9658 15.1229C46.9658 16.2186 46.3413 17.3296 44.9852 17.3296Z"></path>
<path fill="white" d="M39.6237 21.8285V13.7337C39.6237 12.8296 39.2827 12.5078 38.6583 12.2933C38.6583 12.2933 39.2674 12.8296 39.2674 13.7337V21.8285C39.2674 22.6866 38.6583 23.2229 38.6583 23.2229C39.2827 23.0237 39.6237 22.6866 39.6237 21.8285Z"></path>
<path fill="white" d="M58.1256 17.3285H58.4857C59.8189 17.3285 60.4549 16.2252 60.4549 15.1027C60.4549 13.9803 59.8189 12.9114 58.4857 12.9114H58.1256C59.4588 12.9114 60.0947 13.9803 60.0947 15.1027C60.0947 16.2252 59.4588 17.3285 58.1256 17.3285Z"></path>
<path fill="white" d="M55.0328 17.5986L60.266 23.142H60.6261L55.3163 17.5182L55.0328 17.5986Z"></path>
<path fill="white" d="M52.7327 21.8285V13.7337C52.7327 12.8296 52.4033 12.5078 51.7673 12.2933C51.7673 12.2933 52.3765 12.8296 52.3765 13.7337V21.8285C52.3765 22.6866 51.7673 23.2229 51.7673 23.2229C52.4033 23.0237 52.7327 22.6866 52.7327 21.8285Z"></path>
<path fill="white" d="M67.0627 22.0736V13.7337C67.0627 12.8296 66.7447 12.5231 66.1088 12.2933C66.1088 12.2933 66.7064 12.8296 66.7064 13.7337V22.0736C66.7064 22.8092 66.1088 23.2229 66.1088 23.2229C66.6834 23.039 67.0627 22.8092 67.0627 22.0736Z"></path>
<path fill="white" d="M79.0608 12.5932C81.5816 12.689 83.4971 14.842 83.4971 17.8991C83.4971 20.9561 81.6697 22.7835 79.2868 22.8793C79.3443 22.8793 79.4018 22.8869 79.4631 22.8869C81.9341 22.8869 83.8572 20.8795 83.8572 17.8952C83.8572 14.7692 81.8498 12.5817 79.2447 12.5817C79.1834 12.5817 79.1221 12.5894 79.0646 12.5894L79.0608 12.5932Z"></path>
<path fill="white" d="M72.2855 17.9164C72.2855 14.1276 75.6645 11.8597 79.2963 11.7907C79.235 11.7907 79.1737 11.783 79.1086 11.783C75.4116 11.783 71.9254 14.0663 71.9254 17.9164C71.9254 21.7664 75.3503 23.7279 78.9132 23.7279C78.9707 23.7279 79.032 23.724 79.0894 23.7202C75.5955 23.6474 72.2855 21.5174 72.2855 17.9164Z"></path>
<path fill="white" d="M9.48872 8.46954C8.59992 9.17826 7.918 10.0364 7.56555 10.5919H7.92566C8.27429 10.0326 8.95621 9.17443 9.84884 8.46954H9.48872Z"></path>
<path fill="#237A67" d="M112.367 13.0023C112.17 12.981 111.636 12.9596 111.329 12.8315C110.696 12.5709 109.953 12.6093 109.402 13.3612C109.129 13.7328 109.005 13.9293 108.783 14.1728C107.962 13.4338 106.548 12.5453 105.485 11.9216C104.818 11.5286 104.105 11.2552 103.366 11.1014C102.448 10.9134 101.055 10.3752 101.004 10.4008C101.495 10.7724 101.888 11.5158 102.465 11.6268C102.738 11.6823 102.93 11.7464 103.161 12.0668C103.469 12.4897 103.708 12.4385 104.114 12.5282C104.306 12.5709 104.669 13.327 104.934 13.3911C105.246 13.468 105.476 13.7029 105.626 13.908C104.596 13.8994 103.435 13.9891 102.324 14.3052C99.2825 15.1682 97.4711 14.993 97.4711 14.993C97.4711 14.993 100.132 16.1122 101.64 15.9541C103.148 15.7961 103.64 16.7615 104.588 16.6206C105.75 16.4454 106.553 16.5052 106.954 16.565C106.882 16.7188 106.813 16.894 106.728 17.0734C105.335 19.944 104.131 19.6963 102.785 21.106C101.747 21.4263 100.76 21.8535 99.9314 22.6224C100.995 22.1354 103.174 21.123 104.237 20.6361C104.237 20.6361 104.233 20.6361 104.229 20.6361C104.49 20.5165 104.75 20.3926 105.007 20.2601C104.494 20.7728 104.097 21.469 104.071 22.2124C103.738 22.7933 103.434 23.5323 103.349 24.3696C103.772 23.5067 104.315 22.4943 104.789 21.5673C105.07 21.0163 105.626 20.4994 106.01 20.0081C106.484 19.4015 106.916 18.9017 107.617 18.5514C108.069 18.325 108.526 18.1157 108.949 17.838C110.098 17.0819 110.726 15.9285 110.782 14.553C110.782 14.553 110.944 13.4722 112.384 13.0365C112.405 13.0323 112.401 13.0023 112.384 12.9981L112.367 13.0023ZM101.905 10.9006C103.892 11.2253 104.925 12.5453 104.925 12.5453C103.78 11.7806 101.905 10.9006 101.905 10.9006ZM104.985 20.9821L104.972 20.9906C104.972 20.9906 105.002 20.9479 105.015 20.9266C105.002 20.9436 104.994 20.9607 104.985 20.9778V20.9821ZM102.14 14.7581C104.951 13.9165 106.613 15.0143 106.613 15.0143C105.357 14.6213 102.14 14.7581 102.14 14.7581ZM104.818 14.066C106.741 13.7969 108.082 15.2194 108.082 15.2194C107.096 14.5701 104.818 14.066 104.818 14.066ZM110.338 13.0963C110.244 13.0792 110.013 13.3569 109.957 13.4253C109.829 13.5918 109.727 13.7755 109.633 13.9635C109.107 14.993 108.582 16.0567 107.757 16.8854C107.403 17.24 107.014 17.5561 106.613 17.8551C106.706 17.7569 106.864 17.6116 106.959 17.5134C107.258 17.193 107.531 16.847 107.779 16.4838C108.095 16.0182 108.351 15.5184 108.603 15.0143C108.847 14.5231 109.133 14.0062 109.47 13.5705C109.868 13.0536 110.38 12.6948 111.047 12.8827C110.97 13.045 110.513 13.1262 110.338 13.0963Z"></path>
<path fill="#237A67" d="M111.794 17.1732C112.008 17.092 112.234 17.0621 112.439 16.9724C112.324 16.9126 112.255 16.9168 112.178 16.9211C112.033 16.9297 111.897 16.9681 111.76 17.0065C111.828 16.9211 111.918 16.8528 111.995 16.7759C112.114 16.652 112.208 16.5068 112.302 16.3658C112.379 16.2504 112.46 16.1351 112.533 16.0198C112.533 16.0155 112.58 15.9471 112.576 15.9429C112.52 15.9002 112.503 15.9343 112.46 15.9771C112.422 16.024 112.379 16.0668 112.341 16.1137C112.106 16.3744 111.866 16.6435 111.589 16.8613C110.649 17.5875 109.586 18.1514 108.552 18.7324C108.06 19.01 107.501 19.245 107.074 19.6252C106.967 19.9199 107.082 20.0865 107.082 20.1165C107.548 19.6465 108.103 19.3347 108.675 19.0229C110.192 18.1856 110.325 17.9293 111.196 17.4636C111.388 17.3611 111.589 17.2629 111.794 17.186V17.1732ZM109.504 18.3266C109.628 18.1941 109.79 18.1429 109.957 18.0873C109.812 18.177 109.688 18.3095 109.504 18.3266Z"></path>
<path fill="#237A67" d="M112.023 15.4358C111.955 15.013 111.853 14.5943 111.763 14.1757C111.233 14.9959 111.058 15.8716 111.4 16.79C111.87 16.5166 112.118 16.0296 112.023 15.4358ZM111.639 15.0471C111.712 15.7178 111.673 16.1108 111.515 16.303C111.49 16.1151 111.58 15.2265 111.639 15.0471Z"></path>
<path fill="#237A67" d="M113.566 15.987C113.275 15.987 112.993 16.081 112.75 16.2348C112.626 16.3117 112.511 16.4057 112.408 16.5125C112.387 16.5338 112.186 16.7944 112.182 16.7944C112.22 16.7987 112.263 16.8243 112.297 16.8371C112.378 16.8628 112.459 16.8841 112.54 16.9098C112.707 16.9653 112.891 16.9695 113.061 16.914C113.07 16.914 113.079 16.9098 113.087 16.9055C113.297 16.8328 113.463 16.6748 113.596 16.4997C113.664 16.41 113.719 16.316 113.771 16.222C113.779 16.2049 113.873 16.0127 113.89 16.017C113.89 16.017 113.672 15.987 113.557 15.987H113.566ZM112.566 16.6492L113.531 16.1707C113.254 16.4313 112.933 16.5894 112.566 16.6492Z"></path>
<path fill="#237A67" d="M112.248 18.0291C111.966 17.9693 111.705 17.8583 111.415 17.8283C111.137 17.7984 110.68 17.8283 110.518 18.0974C110.543 18.0547 111 18.3495 111.043 18.3751C111.427 18.6058 111.85 18.5802 112.188 18.2726C112.264 18.2043 112.35 18.1487 112.47 18.059C112.44 18.0804 112.286 18.0334 112.248 18.0248V18.0291ZM110.962 18.0291C111.287 18.0035 111.59 18.1017 111.901 18.1615C111.585 18.2171 111.184 18.153 110.962 18.0291Z"></path>
<path fill="#237A67" d="M112.522 15.748C112.582 15.7352 112.646 15.7352 112.705 15.7181C112.834 15.6882 112.957 15.6283 113.06 15.5472C113.222 15.4148 113.329 15.2268 113.376 15.026C113.423 14.821 113.398 14.6202 113.359 14.4151V14.4024C113.291 14.5518 113.133 14.6758 113.013 14.7911C112.851 14.9449 112.676 15.0901 112.526 15.2567C112.496 15.2909 112.471 15.3251 112.445 15.3592C112.432 15.3763 112.424 15.3934 112.415 15.4105C112.342 15.5386 112.317 15.6796 112.338 15.8249C112.338 15.812 112.505 15.7565 112.522 15.748ZM113.073 14.9833C112.881 15.1585 112.731 15.3763 112.513 15.5728C112.654 15.2994 112.859 15.1414 113.073 14.9833Z"></path>
<path fill="#237A67" d="M105.969 30.7585H105.731L105.672 30.6515C104.99 29.1687 105.121 28.0705 105.347 27.4243C103.8 28.4075 99.7292 30.6911 97.283 29.252C95.7366 28.3441 95.1502 26.12 95.5384 22.647C96.165 17.0569 95.4475 13.3461 94.7336 11.2171C94.2381 9.73832 93.6393 8.67581 93.0725 7.96616C91.891 8.03352 91.1539 7.84718 90.8803 7.49834C90.7017 7.26838 90.7296 6.9869 90.9515 6.72127C91.1854 6.44372 91.574 6.39618 92.0139 6.58645C92.3747 6.74109 92.7949 7.06619 93.2274 7.57365C95.3123 7.42298 99.0273 6.49926 104.705 3.71214C104.724 3.70025 104.942 3.58528 105.307 3.4267C104.681 3.21657 103.9 3.01041 103.035 2.9113C100.328 2.59413 98.0956 3.39101 96.387 5.2821C96.93 5.35745 98.0677 5.33366 98.5833 3.97381L98.9323 4.10464C98.1312 6.21778 96.0024 5.58344 95.9787 5.57947L95.7092 5.49621L95.8914 5.2821C97.1442 3.79143 99.4077 2.10649 103.091 2.54259C104.189 2.67343 105.145 2.95888 105.835 3.21657C106.524 2.95888 107.48 2.67343 108.578 2.54259C110.612 2.30075 113.506 2.58224 115.777 5.2821L115.96 5.49621L115.69 5.57947C115.671 5.58737 113.538 6.21778 112.737 4.10464L113.086 3.97381C113.601 5.33366 114.743 5.35745 115.282 5.2821C113.573 3.38705 111.333 2.59017 108.622 2.9113C107.761 3.01438 106.984 3.21657 106.362 3.4267C106.73 3.58528 106.949 3.70421 106.972 3.71611C112.642 6.49926 116.357 7.42298 118.442 7.57365C118.874 7.06619 119.298 6.74109 119.655 6.58645C120.099 6.39618 120.483 6.44372 120.717 6.72127C120.943 6.9869 120.967 7.26838 120.789 7.49834C120.519 7.84718 119.778 8.03352 118.596 7.96616C118.03 8.67581 117.431 9.73832 116.935 11.2171C116.222 13.3461 115.504 17.0569 116.13 22.647C116.519 26.12 115.932 28.3441 114.386 29.252C113.827 29.581 113.185 29.7158 112.507 29.7158C110.211 29.7158 107.515 28.1815 106.326 27.4243C106.548 28.0705 106.683 29.1647 106.001 30.6515L105.949 30.7585H105.969ZM105.847 27.2023C105.625 27.6186 105.283 28.6018 105.847 30.0964C106.409 28.6018 106.069 27.6186 105.847 27.2023ZM93.5165 7.93441C95.1419 10.1189 96.7875 14.8566 95.9111 22.6906C95.5384 26.005 96.0659 28.1022 97.473 28.9308C100.138 30.4968 105.204 27.0833 105.704 26.7384L105.811 26.6115L105.847 26.6393L105.886 26.6115L105.993 26.7384C106.493 27.0833 111.556 30.4968 114.224 28.9308C115.631 28.1022 116.154 26.005 115.786 22.6906C114.909 14.8566 116.555 10.1189 118.18 7.93441C115.821 7.70053 111.988 6.59042 106.822 4.0531C106.81 4.04913 106.449 3.85487 105.854 3.62096C105.26 3.8509 104.903 4.04517 104.895 4.04913C99.7251 6.59042 95.8873 7.70053 93.5284 7.93441H93.5165ZM118.937 7.60142C119.853 7.61727 120.365 7.46262 120.515 7.27235C120.539 7.24061 120.61 7.15342 120.452 6.96708C120.285 6.77279 119.984 6.86399 119.821 6.93533C119.568 7.04636 119.263 7.2644 118.937 7.60142ZM91.5224 6.84815C91.4192 6.84815 91.3165 6.87984 91.2411 6.96708C91.0863 7.15342 91.1539 7.24061 91.1776 7.27235C91.3242 7.46262 91.8357 7.61727 92.7556 7.60142C92.4304 7.26043 92.129 7.04239 91.8714 6.93533C91.78 6.89569 91.6494 6.85207 91.5224 6.85207V6.84815Z"></path>
<path fill="#237A67" d="M91.9173 9.02621C94.3197 11.7142 94.8709 15.5598 94.9066 19.0447C94.9184 21.8833 94.0383 24.7656 94.7755 27.5369C95.4615 30.201 98.0228 31.0257 100.548 30.5777C101.793 30.3834 102.994 29.9235 104.192 29.4676C103.065 30.0742 101.892 30.6332 100.62 30.9385C98.6928 31.4182 96.3854 31.1684 95.0454 29.5429C94.1571 28.4883 93.852 27.0968 93.7648 25.7647C93.6141 23.1758 94.3197 20.6543 94.2366 18.0893C94.1968 14.9572 93.7648 11.6508 91.921 9.02621H91.9173Z"></path>
<path fill="#237A67" d="M119.985 9.02618C118.142 11.6507 117.71 14.9572 117.67 18.0892C117.587 20.6543 118.293 23.1758 118.142 25.7647C118.051 27.0967 117.745 28.4883 116.861 29.5429C115.521 31.1683 113.214 31.4181 111.287 30.9384C110.015 30.6332 108.841 30.0741 107.715 29.4676C108.913 29.9235 110.114 30.3834 111.358 30.5776C113.884 31.0256 116.441 30.205 117.131 27.5368C117.864 24.7656 116.984 21.8833 117 19.0447C117.036 15.5598 117.587 11.7142 119.989 9.02618H119.985Z"></path>
<path fill="#237A67" d="M118.689 6.07631C115.485 2.38928 110.879 0.446632 106.121 2.19501C106.077 2.19501 105.887 2.19501 105.844 2.19501H105.788L105.721 2.17519C104.092 1.60826 102.327 1.3902 100.618 1.66376C97.7085 2.14744 95.1317 3.87203 93.2126 6.07631C93.8588 5.06536 94.6955 4.1773 95.6154 3.40421C98.5411 0.934276 102.347 0.169112 105.966 1.46949L105.844 1.44967H106.058L105.935 1.46949C108.254 0.65279 110.875 0.605215 113.166 1.53689C115.422 2.44081 117.361 4.05836 118.689 6.07631Z"></path>
<path fill="#237A67" d="M203.361 11.6295C199.687 11.6295 196.219 13.9442 196.219 17.8389C196.219 21.7337 199.626 23.721 203.167 23.721C206.708 23.721 210.332 21.4253 210.332 17.5116C210.332 13.5978 206.913 11.6295 203.361 11.6295ZM203.361 22.6207C200.783 22.6207 198.811 20.5268 198.811 17.5153C198.811 14.6904 200.673 12.7488 203.144 12.7488C205.737 12.7488 207.732 14.8427 207.732 17.8389C207.732 20.8352 205.82 22.6207 203.365 22.6207H203.361Z"></path>
<path fill="#237A67" d="M129.471 13.5868C129.692 12.9357 129.083 12.3456 128.535 12.1438V11.8964H132.475L136.271 20.7137L139.945 11.8964H143.863V12.1438C143.303 12.3608 142.683 12.8558 142.888 13.5411L145.055 21.0868C145.504 22.6249 146.075 23.0437 146.513 23.2112V23.4434H142.317V23.2112C143.037 23.0856 143.17 22.4993 142.915 21.6427L140.726 14.3482L136.858 23.4434H134.996L131.139 14.3329L128.923 21.6579C128.691 22.4346 128.691 22.979 129.46 23.2112V23.4434H125.931V23.2112C126.563 23.0856 126.951 22.6211 127.305 21.3343L129.471 13.5906V13.5868Z"></path>
<path fill="#237A67" d="M152.259 11.8964V12.1438C151.638 12.3608 151.299 12.7187 151.299 13.602V22.0462C151.299 22.8077 151.653 23.0247 152.259 23.2112V23.4434H148.048V23.2112C148.619 23.0247 148.996 22.7924 148.996 22.0462V13.602C148.996 12.6845 148.68 12.3761 148.048 12.1438V11.8964H152.259Z"></path>
<path fill="#237A67" d="M164.062 23.4426H154.669V23.2103C155.24 23.0238 155.617 22.6812 155.617 21.9235V13.6049C155.617 12.6874 155.301 12.379 154.669 12.1468V11.8993H158.88V12.1468C158.259 12.3638 157.92 12.7217 157.92 13.6049V21.8626C157.92 22.2357 158.019 22.3423 158.187 22.3423H162.615C163.319 22.3423 163.989 21.7218 164.416 20.7585H164.61L164.062 23.4426Z"></path>
<path fill="#237A67" d="M175.213 20.7099L174.763 19.8114H169.178L168.158 21.8597C167.781 22.5906 168.645 23.0703 169.071 23.2112V23.4434H164.811V23.2112C165.272 23.0703 166.003 22.6668 166.589 21.5208L171.105 12.7339C171.127 12.4218 170.13 12.1134 170.107 12.1438V11.8964H173.111L178.038 21.6274C178.574 22.682 179.351 23.0551 179.789 23.2112V23.4434H174.79V23.2112C175.19 23.0703 176.248 22.5145 175.677 21.5665C175.494 21.2581 175.361 20.9916 175.216 20.7137L175.213 20.7099ZM169.776 18.6617H174.204L172.014 14.2378L169.776 18.6617Z"></path>
<path fill="#237A67" d="M193.679 23.4426H192.038L183.422 14.5034V21.9235C183.422 22.6697 183.81 23.0276 184.381 23.2103V23.4426H180.841V23.2103C181.438 23.0238 181.815 22.6507 181.815 21.9235V13.3879C181.777 12.6912 181.416 12.379 180.841 12.1468V11.8993H184.039L192.068 20.157V13.4526C192.068 12.6608 191.668 12.3676 191.094 12.1506V11.9031H194.634V12.1506C194.025 12.3828 193.675 12.695 193.675 13.4526V23.4502L193.679 23.4426Z"></path>
<path fill="#237A67" d="M173.532 8.27869C172.649 9.1085 171.971 10.1172 171.621 10.7719H172.98C173.905 9.76701 175.622 8.54514 176.787 8.27869H173.532Z"></path>
<path fill="white" d="M203.593 12.6143C206.099 12.7094 208.002 14.8491 208.002 17.8872C208.002 20.9253 206.186 22.7413 203.818 22.8364C203.875 22.8364 203.932 22.8441 203.993 22.8441C206.449 22.8441 208.36 20.8491 208.36 17.8834C208.36 14.7767 206.365 12.6028 203.776 12.6028C203.715 12.6028 203.654 12.6105 203.597 12.6105L203.593 12.6143Z"></path>
<path fill="white" d="M196.859 17.9033C196.859 14.138 200.217 11.8842 203.826 11.8157C203.765 11.8157 203.704 11.8081 203.64 11.8081C199.966 11.8081 196.501 14.0771 196.501 17.9033C196.501 21.7295 199.905 23.6787 203.446 23.6787C203.503 23.6787 203.564 23.6749 203.621 23.6711C200.148 23.5988 196.859 21.482 196.859 17.9033Z"></path>
<path fill="white" d="M128.023 21.3345L130.19 13.7316C130.411 13.092 129.801 12.5133 129.253 12.3154C129.253 12.3154 130.053 13.092 129.832 13.7316L127.665 21.3345C127.311 22.5984 126.649 23.1771 126.649 23.1771C127.281 23.0553 127.669 22.5984 128.023 21.3345Z"></path>
<path fill="white" d="M136.856 20.9669L140.53 12.3095H140.172L136.677 20.5519L136.856 20.9669Z"></path>
<path fill="white" d="M131.59 14.7122L135.238 23.1755H135.596L131.739 14.2287L131.59 14.7122Z"></path>
<path fill="white" d="M143.633 21.6372L141.443 14.476L141.234 14.9595L143.366 21.9342C143.621 22.7717 143.035 23.1753 143.035 23.1753C143.754 23.0535 143.888 22.4748 143.629 21.6372H143.633Z"></path>
<path fill="white" d="M149.714 22.035V13.7468C149.714 12.8484 149.398 12.5438 148.766 12.3154C148.766 12.3154 149.36 12.8484 149.36 13.7468V22.035C149.36 22.766 148.766 23.1771 148.766 23.1771C149.337 22.9944 149.714 22.766 149.714 22.035Z"></path>
<path fill="white" d="M164.316 21.823L164.464 21.2178C164.038 22.1618 163.372 22.7708 162.664 22.7708H163.022C163.596 22.7708 163.901 22.4815 164.316 21.823Z"></path>
<path fill="white" d="M156.324 21.9132V13.7468C156.324 12.8484 156.008 12.5438 155.376 12.3154C155.376 12.3154 155.97 12.8484 155.97 13.7468V21.9132C155.97 22.6594 155.376 23.1771 155.376 23.1771C155.947 22.9944 156.324 22.6594 156.324 21.9132Z"></path>
<path fill="white" d="M176.382 21.5607C176.199 21.2562 176.066 20.9974 175.921 20.7233L175.472 19.8402H175.114L175.563 20.7233C175.708 20.9974 175.841 21.2562 176.024 21.5607C176.595 22.4895 175.491 23.1746 175.491 23.1746C175.891 23.0376 176.949 22.4895 176.378 21.5607H176.382Z"></path>
<path fill="white" d="M172.535 14.7163L174.549 18.7092H174.903L172.718 14.3661L172.535 14.7163Z"></path>
<path fill="white" d="M167.292 21.5161L171.804 12.733C171.827 12.4284 170.829 12.1429 170.806 12.1734C170.806 12.1734 171.472 12.4284 171.446 12.733L166.934 21.5161C166.352 22.643 165.514 23.176 165.514 23.176C165.974 23.0389 166.705 22.643 167.288 21.5161H167.292Z"></path>
<path fill="white" d="M182.514 21.9132V13.5336C182.476 12.8484 182.114 12.5438 181.539 12.3154C181.539 12.3154 182.118 12.8484 182.156 13.5336V21.9132C182.156 22.6289 181.539 23.1771 181.539 23.1771C182.137 22.9944 182.514 22.6289 182.514 21.9132Z"></path>
<path fill="white" d="M192.416 13.5907V19.8154L192.774 20.1771V13.5946C192.774 12.8179 192.374 12.5286 191.799 12.3154C191.799 12.3154 192.416 12.8179 192.416 13.5946V13.5907Z"></path>
<path fill="white" d="M183.906 14.6856L192.16 23.0993H192.518L183.906 14.3239V14.6856Z"></path>
<path fill="white" d="M173.876 8.51516C172.993 9.32974 172.521 9.954 172.174 10.5973H172.384C172.73 9.954 173.351 9.32974 174.234 8.51516H173.876Z"></path>
</svg>
