<svg width="211" height="32" viewBox="0 0 211 32" fill="none" xmlns="http://www.w3.org/2000/svg">
<g clip-path="url(#clip0_2950_657)">
<path d="M10.7984 20.7399L10.3463 19.8358H4.72622L3.6995 21.8968C3.32023 22.6323 4.18988 23.115 4.61895 23.2568V23.4905H0.332031V23.2568C0.795584 23.115 1.53114 22.7089 2.12112 21.5558L6.66472 12.7141C6.68771 12.3999 5.68398 12.0896 5.66099 12.1203V11.8713H8.68367L13.641 21.6631C14.1812 22.7243 14.9627 23.0997 15.4033 23.2568V23.4905H10.3732V23.2568C10.7754 23.115 11.8404 22.5557 11.2658 21.6018C11.0819 21.2915 10.9478 21.0233 10.8022 20.7437L10.7984 20.7399ZM5.32769 18.6788H9.78318L7.58034 14.2273L5.32769 18.6788Z" fill="#1D2C4B"/>
<path d="M19.1976 13.5722C19.4198 12.9171 18.8069 12.3233 18.2552 12.1203V11.8713H22.2203L26.0398 20.7437L29.7368 11.8713H33.6789V12.1203C33.1157 12.3386 32.4913 12.8366 32.6982 13.5262L34.878 21.1191C35.3301 22.6668 35.9047 23.0882 36.3453 23.2568V23.4905H32.1235V23.2568C32.8476 23.1303 32.9817 22.5404 32.725 21.6784L30.5221 14.3384L26.6298 23.4905H24.7564L20.8756 14.323L18.6459 21.6938C18.4123 22.4753 18.4123 23.0231 19.1861 23.2568V23.4905H15.6348V23.2568C16.2707 23.1303 16.6615 22.663 17.0178 21.3681L19.1976 13.576V13.5722Z" fill="#1D2C4B"/>
<path d="M38.8619 13.5875C38.8619 12.6643 38.5209 12.3386 37.8965 12.1203V11.8713H44.9225C47.7767 11.8713 49.1941 13.2772 49.1941 15.0586C49.1941 16.84 47.7498 18.2459 44.9225 18.2459H41.1643V21.8393C41.1643 22.7128 41.4823 23.0576 42.1297 23.2606V23.4943H37.8926V23.2606C38.5171 23.0576 38.858 22.7128 38.858 21.8393V13.5913L38.8619 13.5875ZM41.6279 12.9784C41.3444 12.9784 41.1643 13.009 41.1643 13.4956V17.1349H44.5931C45.9531 17.1349 46.5775 16.1044 46.5775 15.0586C46.5775 14.0127 45.9531 12.9822 44.5931 12.9822H41.6317L41.6279 12.9784Z" fill="#1D2C4B"/>
<path d="M51.979 13.5875C51.979 12.6643 51.6495 12.3386 51.0136 12.1203V11.8713H58.0397C60.8938 11.8713 62.2998 13.2772 62.2998 15.0586C62.2998 16.7289 60.9053 18.2459 58.1852 18.2459L61.6868 21.9772C62.3955 22.7434 63.0353 23.1035 63.3878 23.2568V23.4905H60.1697L54.5611 17.4453V17.1311H57.7332C59.0664 17.1311 59.7023 16.1006 59.7023 15.0548C59.7023 14.0089 59.0664 13.009 57.7332 13.009H54.7565C54.4615 13.009 54.2776 13.0244 54.2776 13.5109V21.8355C54.2776 22.7089 54.5956 23.0537 55.243 23.2568V23.4905H51.0059V23.2568C51.6419 23.0537 51.9713 22.7089 51.9713 21.8355V13.5875H51.979Z" fill="#1D2C4B"/>
<path d="M69.6005 11.8713V12.1203C68.976 12.3386 68.635 12.6987 68.635 13.5875V22.0845C68.635 22.8507 68.9913 23.0691 69.6005 23.2568V23.4905H65.3633V23.2568C65.938 23.0691 66.3173 22.8354 66.3173 22.0845V13.5875C66.3173 12.6643 65.9993 12.354 65.3633 12.1203V11.8713H69.6005Z" fill="#1D2C4B"/>
<path d="M78.7241 11.6016C75.0272 11.6016 71.5371 13.9308 71.5371 17.8499C71.5371 21.7689 74.9659 23.7687 78.5288 23.7687C82.0916 23.7687 85.7388 21.4586 85.7388 17.5204C85.7388 13.5823 82.2985 11.6016 78.7241 11.6016ZM78.7241 22.6615C76.1305 22.6615 74.1461 20.5545 74.1461 17.5242C74.1461 14.6817 76.0194 12.7279 78.5058 12.7279C81.1147 12.7279 83.1222 14.8349 83.1222 17.8499C83.1222 20.8648 81.199 22.6615 78.728 22.6615H78.7241Z" fill="#1D2C4B"/>
<path d="M9.06087 8.2312C8.17208 9.06634 7.49015 10.0815 7.1377 10.7405H8.50537C9.43631 9.72909 11.1641 8.49936 12.3364 8.2312H9.06087Z" fill="#1D2C4B"/>
<path d="M8.18164 14.7092L10.2044 18.7278H10.5645L8.3617 14.3567L8.18164 14.7092Z" fill="white"/>
<path d="M12.0365 21.5968C11.8526 21.2903 11.7185 21.0298 11.573 20.754L11.1209 19.8652H10.7646L11.2167 20.754C11.3622 21.0298 11.4963 21.2903 11.6802 21.5968C12.2549 22.5315 11.1477 23.2211 11.1477 23.2211C11.55 23.0832 12.615 22.5315 12.0403 21.5968H12.0365Z" fill="white"/>
<path d="M2.89847 21.5507L7.43825 12.8737C7.46123 12.5672 6.4575 12.2607 6.43451 12.2914C6.43451 12.2914 7.10495 12.5672 7.07812 12.8737L2.53835 21.5507C1.95221 22.6847 1.10938 23.221 1.10938 23.221C1.57293 23.0831 2.30848 22.6847 2.89463 21.5507H2.89847Z" fill="white"/>
<path d="M17.7873 21.3686L19.9634 13.7183C20.1856 13.0747 19.5726 12.4924 19.0209 12.2932C19.0209 12.2932 19.8254 13.0747 19.6032 13.7183L17.4272 21.3686C17.0709 22.6405 16.4043 23.2228 16.4043 23.2228C17.0403 23.1002 17.431 22.6405 17.7873 21.3686Z" fill="white"/>
<path d="M26.6439 21.1286L30.3409 12.4209H29.9807L26.4639 20.7149L26.6439 21.1286Z" fill="white"/>
<path d="M33.4849 21.6735L31.282 14.4675L31.0713 14.954L33.1248 21.6735C33.3814 22.5163 32.8834 23.2212 32.8834 23.2212C33.6036 23.0986 33.7416 22.5163 33.4811 21.6735H33.4849Z" fill="white"/>
<path d="M21.4951 14.9346L25.1652 23.4508H25.5253L21.6445 14.4519L21.4951 14.9346Z" fill="white"/>
<path d="M44.9854 17.3296H45.3417C46.7017 17.3296 47.3223 16.2339 47.3223 15.1229C47.3223 14.012 46.6978 12.9163 45.3417 12.9163H44.9854C46.3415 12.9163 46.966 14.0273 46.966 15.1229C46.966 16.2186 46.3415 17.3296 44.9854 17.3296Z" fill="white"/>
<path d="M39.6236 21.8284V13.7336C39.6236 12.8295 39.2826 12.5077 38.6582 12.2932C38.6582 12.2932 39.2673 12.8295 39.2673 13.7336V21.8284C39.2673 22.6865 38.6582 23.2228 38.6582 23.2228C39.2826 23.0236 39.6236 22.6865 39.6236 21.8284Z" fill="white"/>
<path d="M58.126 17.3285H58.4861C59.8193 17.3285 60.4553 16.2252 60.4553 15.1027C60.4553 13.9803 59.8193 12.9114 58.4861 12.9114H58.126C59.4592 12.9114 60.0951 13.9803 60.0951 15.1027C60.0951 16.2252 59.4592 17.3285 58.126 17.3285Z" fill="white"/>
<path d="M55.0332 17.5987L60.2664 23.1421H60.6265L55.3167 17.5183L55.0332 17.5987Z" fill="white"/>
<path d="M52.733 21.8284V13.7336C52.733 12.8295 52.4036 12.5077 51.7676 12.2932C51.7676 12.2932 52.3768 12.8295 52.3768 13.7336V21.8284C52.3768 22.6865 51.7676 23.2228 51.7676 23.2228C52.4036 23.0236 52.733 22.6865 52.733 21.8284Z" fill="white"/>
<path d="M67.0623 22.0735V13.7336C67.0623 12.8295 66.7443 12.523 66.1084 12.2932C66.1084 12.2932 66.706 12.8295 66.706 13.7336V22.0735C66.706 22.8091 66.1084 23.2228 66.1084 23.2228C66.683 23.0389 67.0623 22.8091 67.0623 22.0735Z" fill="white"/>
<path d="M79.0605 12.5933C81.5813 12.6891 83.4968 14.8421 83.4968 17.8992C83.4968 20.9562 81.6694 22.7836 79.2865 22.8794C79.344 22.8794 79.4015 22.887 79.4628 22.887C81.9338 22.887 83.8569 20.8796 83.8569 17.8953C83.8569 14.7693 81.8495 12.5818 79.2444 12.5818C79.1831 12.5818 79.1218 12.5895 79.0643 12.5895L79.0605 12.5933Z" fill="white"/>
<path d="M72.2859 17.9164C72.2859 14.1276 75.6649 11.8597 79.2967 11.7907C79.2354 11.7907 79.1741 11.783 79.109 11.783C75.412 11.783 71.9258 14.0663 71.9258 17.9164C71.9258 21.7664 75.3507 23.7279 78.9136 23.7279C78.9711 23.7279 79.0324 23.724 79.0898 23.7202C75.5959 23.6474 72.2859 21.5174 72.2859 17.9164Z" fill="white"/>
<path d="M9.4886 8.46948C8.5998 9.1782 7.91788 10.0363 7.56543 10.5918H7.92554C8.27417 10.0325 8.95609 9.17437 9.84872 8.46948H9.4886Z" fill="white"/>
<path d="M112.367 13.0023C112.17 12.981 111.636 12.9596 111.329 12.8315C110.696 12.5709 109.953 12.6093 109.402 13.3612C109.129 13.7328 109.005 13.9293 108.783 14.1728C107.962 13.4338 106.548 12.5453 105.485 11.9216C104.818 11.5286 104.105 11.2552 103.366 11.1014C102.448 10.9134 101.055 10.3752 101.004 10.4008C101.495 10.7724 101.888 11.5158 102.465 11.6268C102.738 11.6823 102.93 11.7464 103.161 12.0668C103.469 12.4897 103.708 12.4385 104.114 12.5282C104.306 12.5709 104.669 13.327 104.934 13.3911C105.246 13.468 105.476 13.7029 105.626 13.908C104.596 13.8994 103.435 13.9891 102.324 14.3052C99.2821 15.1682 97.4707 14.993 97.4707 14.993C97.4707 14.993 100.132 16.1122 101.64 15.9541C103.148 15.7961 103.64 16.7615 104.588 16.6206C105.75 16.4454 106.553 16.5052 106.954 16.565C106.882 16.7188 106.813 16.894 106.728 17.0734C105.335 19.944 104.131 19.6963 102.785 21.106C101.747 21.4263 100.76 21.8535 99.931 22.6224C100.995 22.1354 103.174 21.123 104.237 20.6361C104.237 20.6361 104.233 20.6361 104.229 20.6361C104.49 20.5165 104.75 20.3926 105.007 20.2601C104.494 20.7728 104.097 21.469 104.071 22.2124C103.738 22.7933 103.434 23.5323 103.349 24.3696C103.772 23.5067 104.315 22.4943 104.789 21.5673C105.07 21.0163 105.626 20.4994 106.01 20.0081C106.484 19.4015 106.916 18.9017 107.617 18.5514C108.069 18.325 108.526 18.1157 108.949 17.838C110.098 17.0819 110.726 15.9285 110.782 14.553C110.782 14.553 110.944 13.4722 112.384 13.0365C112.405 13.0323 112.401 13.0023 112.384 12.9981L112.367 13.0023ZM101.905 10.9006C103.892 11.2253 104.925 12.5453 104.925 12.5453C103.78 11.7806 101.905 10.9006 101.905 10.9006ZM104.985 20.9821L104.972 20.9906C104.972 20.9906 105.002 20.9479 105.015 20.9266C105.002 20.9436 104.994 20.9607 104.985 20.9778V20.9821ZM102.14 14.7581C104.951 13.9165 106.613 15.0143 106.613 15.0143C105.357 14.6213 102.14 14.7581 102.14 14.7581ZM104.818 14.066C106.741 13.7969 108.082 15.2194 108.082 15.2194C107.096 14.5701 104.818 14.066 104.818 14.066ZM110.338 13.0963C110.244 13.0792 110.013 13.3569 109.957 13.4253C109.829 13.5918 109.727 13.7755 109.633 13.9635C109.107 14.993 108.582 16.0567 107.757 16.8854C107.403 17.24 107.014 17.5561 106.613 17.8551C106.706 17.7569 106.864 17.6116 106.959 17.5134C107.258 17.193 107.531 16.847 107.779 16.4838C108.095 16.0182 108.351 15.5184 108.603 15.0143C108.847 14.5231 109.133 14.0062 109.47 13.5705C109.868 13.0536 110.38 12.6948 111.047 12.8827C110.97 13.045 110.513 13.1262 110.338 13.0963Z" fill="#1D2C4B"/>
<path d="M111.794 17.1733C112.008 17.0921 112.234 17.0622 112.439 16.9725C112.324 16.9127 112.255 16.9169 112.178 16.9212C112.033 16.9298 111.897 16.9682 111.76 17.0066C111.828 16.9212 111.918 16.8529 111.995 16.776C112.114 16.6521 112.208 16.5069 112.302 16.3659C112.379 16.2505 112.46 16.1352 112.533 16.0199C112.533 16.0156 112.58 15.9472 112.576 15.943C112.52 15.9003 112.503 15.9344 112.46 15.9772C112.422 16.0241 112.379 16.0669 112.341 16.1138C112.106 16.3745 111.866 16.6436 111.589 16.8614C110.649 17.5876 109.586 18.1515 108.552 18.7325C108.06 19.0101 107.501 19.2451 107.074 19.6253C106.967 19.92 107.082 20.0866 107.082 20.1166C107.548 19.6466 108.103 19.3348 108.675 19.023C110.192 18.1857 110.325 17.9294 111.196 17.4637C111.388 17.3612 111.589 17.263 111.794 17.1861V17.1733ZM109.504 18.3267C109.628 18.1942 109.79 18.143 109.957 18.0874C109.812 18.1771 109.688 18.3096 109.504 18.3267Z" fill="#1D2C4B"/>
<path d="M112.023 15.4359C111.955 15.0131 111.853 14.5944 111.763 14.1758C111.233 14.996 111.058 15.8717 111.4 16.7901C111.87 16.5167 112.118 16.0297 112.023 15.4359ZM111.639 15.0472C111.712 15.7179 111.673 16.1109 111.515 16.3031C111.49 16.1152 111.58 15.2266 111.639 15.0472Z" fill="#1D2C4B"/>
<path d="M113.566 15.9871C113.275 15.9871 112.993 16.0811 112.75 16.2349C112.626 16.3118 112.511 16.4058 112.408 16.5126C112.387 16.5339 112.186 16.7945 112.182 16.7945C112.22 16.7988 112.263 16.8244 112.297 16.8372C112.378 16.8629 112.459 16.8842 112.54 16.9099C112.707 16.9654 112.891 16.9696 113.061 16.9141C113.07 16.9141 113.079 16.9099 113.087 16.9056C113.297 16.8329 113.463 16.6749 113.596 16.4998C113.664 16.4101 113.719 16.3161 113.771 16.2221C113.779 16.205 113.873 16.0128 113.89 16.0171C113.89 16.0171 113.672 15.9871 113.557 15.9871H113.566ZM112.566 16.6493L113.531 16.1708C113.254 16.4314 112.933 16.5895 112.566 16.6493Z" fill="#1D2C4B"/>
<path d="M112.248 18.029C111.966 17.9692 111.705 17.8582 111.415 17.8282C111.137 17.7983 110.68 17.8282 110.518 18.0973C110.543 18.0546 111 18.3494 111.043 18.375C111.427 18.6057 111.85 18.5801 112.188 18.2725C112.264 18.2042 112.35 18.1486 112.47 18.0589C112.44 18.0803 112.286 18.0333 112.248 18.0247V18.029ZM110.962 18.029C111.287 18.0034 111.59 18.1016 111.901 18.1614C111.585 18.217 111.184 18.1529 110.962 18.029Z" fill="#1D2C4B"/>
<path d="M112.522 15.7479C112.582 15.7351 112.646 15.7351 112.705 15.718C112.834 15.6881 112.957 15.6282 113.06 15.5471C113.222 15.4147 113.329 15.2267 113.376 15.0259C113.423 14.8209 113.398 14.6201 113.359 14.415V14.4023C113.291 14.5517 113.133 14.6757 113.013 14.791C112.851 14.9448 112.676 15.09 112.526 15.2566C112.496 15.2908 112.471 15.325 112.445 15.3591C112.432 15.3762 112.424 15.3933 112.415 15.4104C112.342 15.5385 112.317 15.6795 112.338 15.8248C112.338 15.8119 112.505 15.7564 112.522 15.7479ZM113.073 14.9832C112.881 15.1584 112.731 15.3762 112.513 15.5727C112.654 15.2993 112.859 15.1413 113.073 14.9832Z" fill="#1D2C4B"/>
<path d="M105.969 30.7586H105.731L105.672 30.6516C104.99 29.1688 105.121 28.0706 105.347 27.4244C103.8 28.4076 99.7295 30.6912 97.2833 29.2521C95.7369 28.3442 95.1505 26.1201 95.5387 22.6471C96.1653 17.057 95.4478 13.3462 94.7339 11.2172C94.2384 9.73839 93.6396 8.67588 93.0728 7.96623C91.8913 8.03359 91.1542 7.84725 90.8806 7.49841C90.702 7.26845 90.7299 6.98697 90.9518 6.72134C91.1857 6.44379 91.5743 6.39625 92.0142 6.58652C92.375 6.74116 92.7952 7.06626 93.2277 7.57372C95.3126 7.42305 99.0276 6.49933 104.705 3.71221C104.724 3.70032 104.942 3.58535 105.307 3.42677C104.681 3.21664 103.9 3.01048 103.035 2.91137C100.328 2.5942 98.0959 3.39108 96.3873 5.28217C96.9303 5.35752 98.068 5.33373 98.5836 3.97388L98.9326 4.10471C98.1315 6.21785 96.0027 5.58351 95.979 5.57954L95.7095 5.49628L95.8917 5.28217C97.1445 3.7915 99.408 2.10656 103.091 2.54266C104.189 2.6735 105.145 2.95895 105.835 3.21664C106.524 2.95895 107.48 2.6735 108.578 2.54266C110.612 2.30082 113.506 2.58231 115.777 5.28217L115.96 5.49628L115.69 5.57954C115.671 5.58744 113.538 6.21785 112.737 4.10471L113.086 3.97388C113.601 5.33373 114.743 5.35752 115.282 5.28217C113.573 3.38712 111.333 2.59024 108.622 2.91137C107.761 3.01445 106.984 3.21664 106.362 3.42677C106.73 3.58535 106.949 3.70428 106.972 3.71618C112.642 6.49933 116.357 7.42305 118.442 7.57372C118.874 7.06626 119.298 6.74116 119.655 6.58652C120.099 6.39625 120.483 6.44379 120.717 6.72134C120.943 6.98697 120.967 7.26845 120.789 7.49841C120.519 7.84725 119.778 8.03359 118.596 7.96623C118.03 8.67588 117.431 9.73839 116.935 11.2172C116.222 13.3462 115.504 17.057 116.13 22.6471C116.519 26.1201 115.932 28.3442 114.386 29.2521C113.827 29.5811 113.185 29.7159 112.507 29.7159C110.211 29.7159 107.515 28.1816 106.326 27.4244C106.548 28.0706 106.683 29.1648 106.001 30.6516L105.949 30.7586H105.969ZM105.847 27.2024C105.625 27.6187 105.283 28.6019 105.847 30.0965C106.409 28.6019 106.069 27.6187 105.847 27.2024ZM93.5168 7.93448C95.1422 10.119 96.7878 14.8567 95.9114 22.6907C95.5387 26.0051 96.0662 28.1023 97.4733 28.9309C100.138 30.4969 105.204 27.0834 105.704 26.7385L105.811 26.6116L105.847 26.6394L105.886 26.6116L105.993 26.7385C106.493 27.0834 111.556 30.4969 114.224 28.9309C115.631 28.1023 116.154 26.0051 115.786 22.6907C114.909 14.8567 116.555 10.119 118.18 7.93448C115.821 7.7006 111.988 6.59049 106.822 4.05317C106.81 4.0492 106.449 3.85494 105.854 3.62103C105.26 3.85097 104.903 4.04524 104.895 4.0492C99.7254 6.59049 95.8876 7.7006 93.5287 7.93448H93.5168ZM118.937 7.60149C119.853 7.61734 120.365 7.46269 120.515 7.27242C120.539 7.24068 120.61 7.15349 120.452 6.96715C120.285 6.77286 119.984 6.86406 119.821 6.9354C119.568 7.04643 119.263 7.26447 118.937 7.60149ZM91.5227 6.84822C91.4195 6.84822 91.3168 6.87991 91.2414 6.96715C91.0866 7.15349 91.1542 7.24068 91.1779 7.27242C91.3245 7.46269 91.836 7.61734 92.7559 7.60149C92.4307 7.2605 92.1293 7.04246 91.8717 6.9354C91.7803 6.89576 91.6497 6.85214 91.5227 6.85214V6.84822Z" fill="#1D2C4B"/>
<path d="M91.917 9.02612C94.3194 11.7141 94.8706 15.5597 94.9063 19.0446C94.9181 21.8832 94.038 24.7655 94.7752 27.5368C95.4612 30.2009 98.0225 31.0256 100.548 30.5776C101.793 30.3833 102.994 29.9234 104.192 29.4675C103.065 30.0741 101.892 30.6331 100.62 30.9384C98.6925 31.4181 96.3851 31.1683 95.0451 29.5428C94.1568 28.4882 93.8517 27.0967 93.7645 25.7646C93.6138 23.1757 94.3194 20.6542 94.2363 18.0892C94.1965 14.9571 93.7645 11.6507 91.9207 9.02612H91.917Z" fill="#1D2C4B"/>
<path d="M119.985 9.02612C118.142 11.6506 117.71 14.9571 117.67 18.0891C117.587 20.6542 118.293 23.1757 118.142 25.7646C118.051 27.0966 117.745 28.4882 116.861 29.5428C115.521 31.1682 113.214 31.418 111.287 30.9383C110.015 30.6331 108.841 30.074 107.715 29.4675C108.913 29.9234 110.114 30.3833 111.358 30.5775C113.884 31.0255 116.441 30.2049 117.131 27.5367C117.864 24.7655 116.984 21.8832 117 19.0446C117.036 15.5597 117.587 11.7141 119.989 9.02612H119.985Z" fill="#1D2C4B"/>
<path d="M118.689 6.07631C115.485 2.38928 110.879 0.446633 106.121 2.19501C106.077 2.19501 105.887 2.19501 105.844 2.19501H105.788L105.721 2.17519C104.092 1.60826 102.327 1.3902 100.618 1.66376C97.7088 2.14744 95.132 3.87203 93.2129 6.07631C93.8591 5.06536 94.6958 4.1773 95.6157 3.40421C98.5414 0.934277 102.347 0.169113 105.966 1.46949L105.844 1.44967H106.058L105.935 1.46949C108.254 0.652791 110.875 0.605216 113.166 1.53689C115.422 2.44081 117.361 4.05836 118.689 6.07631Z" fill="#1D2C4B"/>
<path d="M203.361 11.6294C199.687 11.6294 196.219 13.9441 196.219 17.8388C196.219 21.7336 199.626 23.7209 203.167 23.7209C206.708 23.7209 210.332 21.4252 210.332 17.5115C210.332 13.5977 206.913 11.6294 203.361 11.6294ZM203.361 22.6206C200.783 22.6206 198.811 20.5267 198.811 17.5152C198.811 14.6903 200.673 12.7487 203.144 12.7487C205.737 12.7487 207.732 14.8426 207.732 17.8388C207.732 20.8351 205.82 22.6206 203.365 22.6206H203.361Z" fill="#1D2C4B"/>
<path d="M129.471 13.5869C129.692 12.9358 129.083 12.3457 128.535 12.1439V11.8965H132.475L136.271 20.7138L139.945 11.8965H143.863V12.1439C143.303 12.3609 142.683 12.8559 142.888 13.5412L145.055 21.0869C145.504 22.625 146.075 23.0438 146.513 23.2113V23.4435H142.317V23.2113C143.037 23.0857 143.17 22.4994 142.915 21.6428L140.726 14.3483L136.858 23.4435H134.996L131.139 14.333L128.923 21.658C128.691 22.4347 128.691 22.9791 129.46 23.2113V23.4435H125.931V23.2113C126.563 23.0857 126.951 22.6212 127.305 21.3344L129.471 13.5907V13.5869Z" fill="#1D2C4B"/>
<path d="M152.259 11.8965V12.1439C151.638 12.3609 151.299 12.7188 151.299 13.6021V22.0463C151.299 22.8078 151.653 23.0248 152.259 23.2113V23.4435H148.048V23.2113C148.619 23.0248 148.996 22.7925 148.996 22.0463V13.6021C148.996 12.6846 148.68 12.3762 148.048 12.1439V11.8965H152.259Z" fill="#1D2C4B"/>
<path d="M164.062 23.4427H154.669V23.2104C155.24 23.0239 155.617 22.6813 155.617 21.9236V13.605C155.617 12.6875 155.301 12.3791 154.669 12.1469V11.8994H158.88V12.1469C158.259 12.3639 157.92 12.7218 157.92 13.605V21.8627C157.92 22.2358 158.019 22.3424 158.187 22.3424H162.615C163.319 22.3424 163.989 21.7219 164.416 20.7586H164.61L164.062 23.4427Z" fill="#1D2C4B"/>
<path d="M175.213 20.71L174.763 19.8115H169.178L168.158 21.8598C167.781 22.5907 168.645 23.0704 169.071 23.2113V23.4435H164.811V23.2113C165.272 23.0704 166.003 22.6669 166.589 21.5209L171.105 12.734C171.127 12.4219 170.13 12.1135 170.107 12.1439V11.8965H173.111L178.038 21.6275C178.574 22.6821 179.351 23.0552 179.789 23.2113V23.4435H174.79V23.2113C175.19 23.0704 176.248 22.5146 175.677 21.5666C175.494 21.2582 175.361 20.9917 175.216 20.7138L175.213 20.71ZM169.776 18.6618H174.204L172.014 14.2379L169.776 18.6618Z" fill="#1D2C4B"/>
<path d="M193.679 23.4427H192.038L183.422 14.5035V21.9236C183.422 22.6698 183.81 23.0277 184.381 23.2104V23.4427H180.841V23.2104C181.438 23.0239 181.815 22.6508 181.815 21.9236V13.388C181.777 12.6913 181.416 12.3791 180.841 12.1469V11.8994H184.039L192.068 20.1571V13.4527C192.068 12.6609 191.668 12.3677 191.094 12.1507V11.9032H194.634V12.1507C194.025 12.3829 193.675 12.6951 193.675 13.4527V23.4503L193.679 23.4427Z" fill="#1D2C4B"/>
<path d="M173.532 8.27881C172.649 9.10862 171.971 10.1173 171.621 10.772H172.98C173.905 9.76713 175.622 8.54526 176.787 8.27881H173.532Z" fill="#1D2C4B"/>
<path d="M203.593 12.6143C206.099 12.7094 208.002 14.8491 208.002 17.8872C208.002 20.9253 206.186 22.7413 203.818 22.8364C203.875 22.8364 203.932 22.8441 203.993 22.8441C206.449 22.8441 208.36 20.8491 208.36 17.8834C208.36 14.7767 206.365 12.6028 203.776 12.6028C203.715 12.6028 203.654 12.6105 203.597 12.6105L203.593 12.6143Z" fill="white"/>
<path d="M196.859 17.9033C196.859 14.138 200.217 11.8842 203.826 11.8157C203.765 11.8157 203.704 11.8081 203.64 11.8081C199.966 11.8081 196.501 14.0771 196.501 17.9033C196.501 21.7295 199.905 23.6787 203.446 23.6787C203.503 23.6787 203.564 23.6749 203.621 23.6711C200.148 23.5988 196.859 21.482 196.859 17.9033Z" fill="white"/>
<path d="M128.023 21.3345L130.19 13.7316C130.411 13.092 129.801 12.5133 129.253 12.3154C129.253 12.3154 130.053 13.092 129.832 13.7316L127.665 21.3345C127.311 22.5984 126.649 23.1771 126.649 23.1771C127.281 23.0553 127.669 22.5984 128.023 21.3345Z" fill="white"/>
<path d="M136.856 20.967L140.53 12.3096H140.172L136.677 20.552L136.856 20.967Z" fill="white"/>
<path d="M131.59 14.7123L135.238 23.1756H135.596L131.739 14.2288L131.59 14.7123Z" fill="white"/>
<path d="M143.633 21.6373L141.443 14.4761L141.234 14.9596L143.366 21.9343C143.621 22.7718 143.035 23.1754 143.035 23.1754C143.754 23.0536 143.888 22.4749 143.629 21.6373H143.633Z" fill="white"/>
<path d="M149.714 22.035V13.7468C149.714 12.8484 149.398 12.5438 148.766 12.3154C148.766 12.3154 149.36 12.8484 149.36 13.7468V22.035C149.36 22.766 148.766 23.1771 148.766 23.1771C149.337 22.9944 149.714 22.766 149.714 22.035Z" fill="white"/>
<path d="M164.316 21.823L164.464 21.2178C164.038 22.1618 163.372 22.7708 162.664 22.7708H163.022C163.596 22.7708 163.901 22.4815 164.316 21.823Z" fill="white"/>
<path d="M156.324 21.9132V13.7468C156.324 12.8484 156.008 12.5438 155.376 12.3154C155.376 12.3154 155.97 12.8484 155.97 13.7468V21.9132C155.97 22.6594 155.376 23.1771 155.376 23.1771C155.947 22.9944 156.324 22.6594 156.324 21.9132Z" fill="white"/>
<path d="M176.382 21.5606C176.199 21.2561 176.066 20.9973 175.921 20.7232L175.472 19.8401H175.114L175.563 20.7232C175.708 20.9973 175.841 21.2561 176.024 21.5606C176.595 22.4894 175.491 23.1745 175.491 23.1745C175.891 23.0375 176.949 22.4894 176.378 21.5606H176.382Z" fill="white"/>
<path d="M172.535 14.7164L174.549 18.7093H174.903L172.718 14.3662L172.535 14.7164Z" fill="white"/>
<path d="M167.292 21.5161L171.804 12.733C171.827 12.4284 170.829 12.1429 170.806 12.1734C170.806 12.1734 171.472 12.4284 171.446 12.733L166.934 21.5161C166.352 22.643 165.514 23.176 165.514 23.176C165.974 23.0389 166.705 22.643 167.288 21.5161H167.292Z" fill="white"/>
<path d="M182.514 21.9132V13.5336C182.476 12.8484 182.114 12.5438 181.539 12.3154C181.539 12.3154 182.118 12.8484 182.156 13.5336V21.9132C182.156 22.6289 181.539 23.1771 181.539 23.1771C182.137 22.9944 182.514 22.6289 182.514 21.9132Z" fill="white"/>
<path d="M192.416 13.5907V19.8154L192.774 20.1771V13.5946C192.774 12.8179 192.374 12.5286 191.799 12.3154C191.799 12.3154 192.416 12.8179 192.416 13.5946V13.5907Z" fill="white"/>
<path d="M183.906 14.6857L192.16 23.0994H192.518L183.906 14.324V14.6857Z" fill="white"/>
<path d="M173.876 8.51514C172.993 9.32972 172.521 9.95398 172.174 10.5973H172.384C172.73 9.95398 173.351 9.32972 174.234 8.51514H173.876Z" fill="white"/>
</g>
<defs>
<clipPath id="clip0_2950_657">
<rect width="211" height="32" fill="white"/>
</clipPath>
</defs>
</svg>
