<?xml version="1.0" encoding="UTF-8"?> <svg xmlns="http://www.w3.org/2000/svg" width="1000" height="1000" viewBox="0 0 1000 1000" fill="none"><path d="M812.5 125H187.5C84.125 125 0 209.125 0 312.5V687.5C0 790.875 84.125 875 187.5 875H812.5C915.875 875 1000 790.875 1000 687.5V312.5C1000 209.125 915.875 125 812.5 125ZM958.333 687.5C958.333 767.917 892.917 833.333 812.5 833.333H187.5C107.083 833.333 41.6667 767.917 41.6667 687.5V312.5C41.6667 232.083 107.083 166.667 187.5 166.667H812.5C892.917 166.667 958.333 232.083 958.333 312.5V687.5ZM875 312.5C875 324 865.667 333.333 854.167 333.333H645.833C634.333 333.333 625 324 625 312.5C625 301 634.333 291.667 645.833 291.667H854.167C865.667 291.667 875 301 875 312.5ZM875 437.5C875 449 865.667 458.333 854.167 458.333H645.833C634.333 458.333 625 449 625 437.5C625 426 634.333 416.667 645.833 416.667H854.167C865.667 416.667 875 426 875 437.5ZM875 562.5C875 574 865.667 583.333 854.167 583.333H645.833C634.333 583.333 625 574 625 562.5C625 551 634.333 541.667 645.833 541.667H854.167C865.667 541.667 875 551 875 562.5ZM791.667 687.5C791.667 699 782.333 708.333 770.833 708.333H645.833C634.333 708.333 625 699 625 687.5C625 676 634.333 666.667 645.833 666.667H770.833C782.333 666.667 791.667 676 791.667 687.5ZM489.542 416.667H410.458L382.083 337.083C374.542 316.833 354.917 303.25 333.292 303.25C311.667 303.25 292.042 316.833 284.375 337.375L256.125 416.667H177.042C155.292 416.667 135.625 430.375 128.167 450.75C120.667 471.167 126.75 494.375 143.708 508.708L207.083 560.25L181.875 641C175.292 662.042 182.708 685.083 200.333 698.333C209.375 705.125 220.208 708.708 231.583 708.708C241.958 708.708 251.958 705.667 260.542 699.917L333.75 650.917L408.292 699.458C426.75 711.458 450.917 710.5 468.458 697.042C486 683.583 493.083 660.417 486.167 639.458L460.042 559.958L523.167 508.542C539.833 494.5 546 471.292 538.542 450.875C531.083 430.375 511.417 416.625 489.625 416.625L489.542 416.667ZM496.5 476.542L422.583 536.75C415.917 542.208 413.25 551.208 415.958 559.417L446.542 652.583C447.917 656.792 446.542 661.375 443.042 664.042C439.542 666.708 434.667 666.875 431 664.583L344.958 608.5C337.958 604 328.917 604.042 322 608.625L237.333 665.292C234.333 667.333 230.542 668.833 225.333 665C221.792 662.333 220.292 657.667 221.625 653.458L251.042 559.208C253.583 551.083 250.917 542.208 244.292 536.833L170.333 476.625C167 473.833 165.792 469.208 167.292 465.167C168.792 461.042 172.708 458.333 177.083 458.333H270.833C279.625 458.333 287.5 452.792 290.458 444.5L323.5 351.625C326.5 343.583 340.167 343.833 342.917 351.333L376.083 444.458C379.042 452.75 386.917 458.292 395.708 458.292H489.458C493.792 458.292 497.75 461.042 499.25 465.167C500.75 469.25 499.5 473.875 496.458 476.458L496.5 476.542Z" fill="#EA766A"></path></svg> 