<?xml version="1.0" encoding="UTF-8"?> <svg xmlns="http://www.w3.org/2000/svg" width="1000" height="1000" viewBox="0 0 1000 1000" fill="none"><g clip-path="url(#clip0_2025_573)"><path d="M1000 0V395.833C1000 453.25 953.25 500 895.833 500H833.333V1000H791.667V500H729.167C671.75 500 625 453.25 625 395.833V0H666.667V395.833C666.667 430.292 694.708 458.333 729.167 458.333H791.667V0H833.333V458.333H895.833C930.292 458.333 958.333 430.292 958.333 395.833V0H1000ZM41.6667 500C41.6667 247.292 247.292 41.6667 500 41.6667C514.083 41.6667 527.917 42.5417 541.667 43.7917V2.125C527.875 1 514.083 0 500 0C224.292 0 0 224.292 0 500C0 775.708 224.292 1000 500 1000C574.417 1000 644.833 983.208 708.333 953.958V907.75C645.75 939.875 575.042 958.333 500 958.333C247.292 958.333 41.6667 752.708 41.6667 500ZM208.333 500C208.333 339.167 339.167 208.333 500 208.333C514.167 208.333 528 209.708 541.667 211.667V169.583C528 167.875 514.125 166.708 500 166.708C316.208 166.708 166.667 316.25 166.667 500.042C166.667 683.833 316.208 833.375 500 833.375C578.792 833.375 651.208 805.75 708.333 759.833V703.792C655.333 757.958 581.583 791.708 500 791.708C339.167 791.708 208.333 660.875 208.333 500.042V500Z" fill="#EA766A"></path></g><defs><clipPath id="clip0_2025_573"><rect width="1000" height="1000" fill="white"></rect></clipPath></defs></svg> 