<?xml version="1.0" encoding="UTF-8"?> <svg xmlns="http://www.w3.org/2000/svg" width="1000" height="1000" viewBox="0 0 1000 1000" fill="none"><g clip-path="url(#clip0_2025_575)"><path d="M515.958 564.167C523.375 572.958 522.208 586.125 513.417 593.542C457.292 640.708 385.917 666.667 312.5 666.667C140.167 666.667 0 526.5 0 354.167C0 181.833 140.167 41.6667 312.5 41.6667C350.958 41.6667 388.5 48.5833 424.125 62.2083C434.875 66.3333 440.25 78.375 436.125 89.125C432 99.875 420 105.25 409.208 101.125C378.375 89.3333 345.833 83.375 312.5 83.375C163.167 83.3333 41.6667 204.833 41.6667 354.167C41.6667 503.5 163.167 625 312.5 625C376.125 625 438 602.5 486.625 561.625C495.417 554.208 508.5 555.375 515.958 564.167ZM812.083 333.333C789.292 333.333 770.833 351.792 770.833 374.583C770.833 397.375 789.292 415.833 812.083 415.833C834.875 415.833 853.333 397.375 853.333 374.583C853.333 351.792 834.875 333.333 812.083 333.333ZM687.5 167.083C687.5 143.833 668.833 125 645.833 125C622.833 125 604.167 143.833 604.167 167.083C604.167 190.333 622.833 209.167 645.833 209.167C668.833 209.167 687.5 190.333 687.5 167.083ZM839.708 860L750 946.375V645.833C750 634.333 740.667 625 729.167 625C717.667 625 708.333 634.333 708.333 645.833V946.333L618.625 859.958C610.292 852 597.125 852.208 589.167 860.542C581.208 868.833 581.417 882.042 589.75 890L685 981.667C697.25 994.292 708.375 999.958 729.292 999.958C745.208 999.958 761.083 993.917 773.083 981.917L868.625 889.958C876.917 882 877.167 868.792 869.208 860.5C861.25 852.208 848 851.958 839.75 859.917L839.708 860ZM423.042 860L333.333 946.375V770.833C333.333 759.333 324 750 312.5 750C301 750 291.667 759.333 291.667 770.833V946.333L201.958 859.958C193.667 852 180.458 852.208 172.5 860.542C164.542 868.833 164.75 882.042 173.083 890L268.333 981.667C280.583 994.292 291.708 999.958 312.625 999.958C328.542 999.958 344.417 993.917 356.417 981.917L451.958 889.958C460.25 882 460.5 868.792 452.542 860.5C444.583 852.208 431.333 851.958 423.083 859.917L423.042 860ZM1000 270.833C1000 420.167 878.5 541.667 729.167 541.667C579.833 541.667 458.333 420.167 458.333 270.833C458.333 121.5 579.833 0 729.167 0C878.5 0 1000 121.5 1000 270.833ZM958.333 270.833C958.333 144.458 855.542 41.6667 729.167 41.6667C602.792 41.6667 500 144.458 500 270.833C500 397.208 602.792 500 729.167 500C855.542 500 958.333 397.208 958.333 270.833ZM824.042 128.5C814.458 122.083 801.5 124.708 795.167 134.292L628.5 384.292C622.125 393.875 624.708 406.792 634.292 413.167C643.75 419.5 656.75 417.042 663.167 407.375L829.833 157.375C836.208 147.792 833.625 134.875 824.042 128.5ZM312.5 583.333C324 583.333 333.333 574 333.333 562.5V541.667H358.542C413.583 541.667 458.333 496.917 458.333 441.875C458.333 392.875 423.25 351.5 374.958 343.458L256.917 323.75C228.792 319.083 208.333 294.958 208.333 266.458C208.333 234.417 234.417 208.333 266.458 208.333H354.167C365.667 208.333 375 199 375 187.5C375 176 365.667 166.667 354.167 166.667H333.333V145.833C333.333 134.333 324 125 312.5 125C301 125 291.667 134.333 291.667 145.833V166.667H266.458C211.417 166.667 166.667 211.417 166.667 266.458C166.667 315.458 201.75 356.833 250.042 364.875L368.083 384.583C396.208 389.25 416.667 413.375 416.667 441.875C416.667 473.917 390.583 500 358.542 500H257.083C235.625 500 216 488.25 205.833 469.333C200.417 459.208 187.75 455.375 177.625 460.833C167.5 466.25 163.667 478.917 169.125 489.042C186.542 521.5 220.25 541.708 257.083 541.708H291.667V562.542C291.667 574.042 301 583.375 312.5 583.375V583.333Z" fill="#EA766A"></path></g><defs><clipPath id="clip0_2025_575"><rect width="1000" height="1000" fill="white"></rect></clipPath></defs></svg> 