<?xml version="1.0" encoding="UTF-8"?> <svg xmlns="http://www.w3.org/2000/svg" width="1000" height="1000" viewBox="0 0 1000 1000" fill="none"><path d="M0 395.834C0 384.334 9.33333 375 20.8333 375H229.167C240.667 375 250 384.334 250 395.834C250 407.334 240.667 416.667 229.167 416.667H20.8333C9.33333 416.667 0 407.334 0 395.834ZM1000 437.5V645.834C1000 708.167 960.667 761.5 905.5 782.334C912.833 798.334 916.667 815.584 916.667 833.334C916.667 902.25 860.583 958.334 791.667 958.334C722.75 958.334 666.667 902.25 666.667 833.334C666.667 819 669.167 804.959 674 791.667H326C330.833 804.959 333.333 819 333.333 833.334C333.333 902.25 277.25 958.334 208.333 958.334C139.417 958.334 83.3333 902.25 83.3333 833.334C83.3333 815.584 87.1667 798.334 94.5 782.334C39.3333 761.5 0 708.167 0 645.834V520.834C0 509.334 9.33333 500 20.8333 500C32.3333 500 41.6667 509.334 41.6667 520.834V645.834C41.6667 703.25 88.375 750 145.833 750H666.667V229.167C666.667 148.75 601.25 83.3337 520.833 83.3337C509.333 83.3337 500 74.0003 500 62.5003C500 51.0003 509.333 41.667 520.833 41.667C624.208 41.667 708.333 125.792 708.333 229.167V250H812.5C915.875 250 1000 334.125 1000 437.5ZM708.333 291.667V500H958.333V437.5C958.333 357.084 892.917 291.667 812.5 291.667H708.333ZM280.125 791.667H145.833C142.792 791.667 139.75 791.542 136.708 791.375C129 804.25 125 818.542 125 833.334C125 879.292 162.375 916.667 208.333 916.667C254.292 916.667 291.667 879.292 291.667 833.334C291.667 818.667 287.708 804.459 280.125 791.667ZM863.292 791.375C860.292 791.584 857.25 791.667 854.167 791.667H719.875C712.292 804.459 708.333 818.667 708.333 833.334C708.333 879.292 745.708 916.667 791.667 916.667C837.625 916.667 875 879.292 875 833.334C875 818.542 870.958 804.25 863.292 791.375ZM958.333 645.834V541.667H708.333V750H854.167C911.625 750 958.333 703.25 958.333 645.834ZM20.8333 83.3337H395.833C407.333 83.3337 416.667 74.0003 416.667 62.5003C416.667 51.0003 407.333 41.667 395.833 41.667H20.8333C9.33333 41.667 0 51.0003 0 62.5003C0 74.0003 9.33333 83.3337 20.8333 83.3337ZM20.8333 250H312.5C324 250 333.333 240.667 333.333 229.167C333.333 217.667 324 208.334 312.5 208.334H20.8333C9.33333 208.334 0 217.667 0 229.167C0 240.667 9.33333 250 20.8333 250Z" fill="#EA766A"></path></svg> 