<?xml version="1.0" encoding="UTF-8"?> <svg xmlns="http://www.w3.org/2000/svg" id="_Слой_1" data-name="Слой 1" viewBox="0 0 1500 600"><defs><style> .cls-1 { fill: #fff; } </style></defs><g><g><path class="cls-1" d="M162.65,301.39l-32.16-63.52h-19.61v1.62c.16-.2,6.67,1.82,6.51,3.85l-29.46,57.34c-3.81,7.5-8.58,10.13-11.59,11.04v1.52h27.79v-1.52c-2.78-.91-8.42-4.05-5.96-8.81l6.67-13.37h36.45l2.94,5.88c.95,1.82,1.83,3.55,3.02,5.57,3.73,6.18-3.17,9.83-5.8,10.74v1.52h32.64v-1.52c-2.86-1.01-7.94-3.44-11.43-10.33ZM92.98,300.66c-3.81,7.36-8.57,9.95-11.59,10.84,0,0,5.45-3.48,9.26-10.84l29.45-56.29c.16-1.99-4.18-3.78-4.18-3.78.16-.2,6.67,1.79,6.51,3.78l-29.45,56.29ZM108.73,282.04l14.61-28.88,14.29,28.88h-28.9ZM140.34,282.36l-13.14-26.07,1.18-2.28,14.28,28.35h-2.33ZM146.48,311.5s7.2-4.47,3.47-10.54c-1.19-1.99-2.06-3.68-3.01-5.47l-2.94-5.77h2.32l2.94,5.77c.95,1.79,1.83,3.48,3.02,5.47,3.73,6.07-3.17,9.65-5.79,10.54Z"></path><path class="cls-1" d="M300.42,297.85l-14.13-49.24c-1.35-4.46,2.7-7.7,6.35-9.12v-1.62h-25.57l-23.98,57.55-24.77-57.55h-25.73v1.62c3.57,1.32,7.54,5.16,6.11,9.42l-14.13,50.56c-2.3,8.41-4.84,11.45-8.97,12.26v1.52h23.03v-1.52c-5-1.52-5-5.07-3.5-10.13l14.45-47.82,25.17,59.47h12.15l25.25-59.37,14.29,47.62c1.67,5.57.8,9.42-3.89,10.23v1.52h27.4v-1.52c-2.86-1.11-6.59-3.85-9.53-13.88ZM203.7,249.84l-14.13,49.63c-2.3,8.25-4.84,11.24-8.97,12.03,0,0,4.34-3.78,6.64-12.03l14.13-49.63c1.43-4.18-3.79-9.25-3.79-9.25,3.57,1.29,7.54,5.07,6.11,9.25ZM237.41,312.99l-23.8-55.23.97-3.15,25.16,58.38h-2.33ZM247.02,297.95l-1.18-2.7,22.83-53.8h2.33l-23.97,56.49ZM287.51,311.5s3.23-4.57,1.56-10.04l-13.32-43.6,1.36-3.15,14.29,46.74c1.67,5.47.79,9.25-3.89,10.04Z"></path><path class="cls-1" d="M365.53,237.87h-45.58v1.62c4.05,1.42,6.27,3.54,6.27,9.52v53.49c0,5.67-2.22,7.9-6.27,9.22v1.52h27.48v-1.52c-4.21-1.32-6.27-3.54-6.27-9.22v-23.3h24.38c18.34,0,27.71-9.32,27.71-20.67s-9.21-20.67-27.71-20.67ZM331.16,302.45c0,5.57-2.22,7.76-6.27,9.05,0,0,3.94-3.48,3.94-9.05v-52.51c0-5.87-3.94-9.35-3.94-9.35,4.05,1.39,6.27,3.48,6.27,9.35v52.51ZM363.38,272.01h-22.24v-23.6c0-3.14,1.19-3.34,3.02-3.34h19.22c8.81,0,12.86,6.79,12.86,13.47s-4.05,13.47-12.86,13.47ZM368.3,273.28h-2.32c8.81,0,12.86-7.11,12.86-14.32s-4.05-14.32-12.86-14.32h2.32c8.81,0,12.86,7.22,12.86,14.32s-4.05,14.32-12.86,14.32Z"></path><path class="cls-1" d="M474.31,303.42l-22.71-24.21c17.63,0,26.68-9.83,26.68-20.67,0-11.55-9.13-20.67-27.63-20.67h-45.58v1.62c4.13,1.42,6.27,3.54,6.27,9.52v53.49c0,5.67-2.14,7.9-6.27,9.22v1.52h27.48v-1.52c-4.21-1.32-6.27-3.54-6.27-9.22v-54c0-3.14,1.19-3.24,3.1-3.24h19.3c8.66,0,12.78,6.48,12.78,13.27s-4.13,13.47-12.78,13.47h-20.57v2.03l36.37,39.21h20.88v-1.52c-2.3-1.01-6.43-3.34-11.04-8.31ZM416.23,302.45c0,5.57-2.14,7.76-6.27,9.05,0,0,3.95-3.48,3.95-9.05v-52.51c0-5.87-3.95-9.35-3.95-9.35,4.13,1.39,6.27,3.48,6.27,9.35v52.51ZM463.99,258.85c0-7.27-4.13-14.22-12.78-14.22h2.33c8.65,0,12.78,6.94,12.78,14.22s-4.13,14.43-12.78,14.43h-2.33c8.65,0,12.78-7.16,12.78-14.43ZM465.1,310.98l-33.95-35.95,1.83-.53,34.45,36.48h-2.33Z"></path><path class="cls-1" d="M498.13,239.49c4.13,1.52,6.19,3.54,6.19,9.52v55.11c0,4.86-2.46,6.38-6.19,7.6v1.52h27.48v-1.52c-3.97-1.21-6.27-2.63-6.27-7.6v-55.11c0-5.78,2.22-8.1,6.27-9.52v-1.62h-27.48v1.62ZM509.17,249.94v54.1c0,4.77-2.46,6.27-6.19,7.46,0,0,3.87-2.68,3.87-7.46v-54.1c0-5.87-3.87-9.35-3.87-9.35,4.13,1.49,6.19,3.48,6.19,9.35Z"></path><path class="cls-1" d="M584.84,236.15c-23.98,0-46.61,15.1-46.61,40.53s22.24,38.4,45.34,38.4,46.77-14.99,46.77-40.53-22.31-38.4-45.5-38.4ZM586.05,314.79c-23.1,0-45.32-13.92-45.32-37.69,0-24.96,22.62-39.79,46.59-39.79.4,0,.8.03,1.21.04-23.55.45-45.47,15.17-45.47,39.74s21.48,37.18,44.14,37.65c-.38,0-.76.04-1.15.04ZM583.41,243.44c16.91,0,29.94,13.68,29.94,33.23s-12.47,31.2-28.51,31.2c-16.83,0-29.7-13.67-29.7-33.33,0-18.44,12.15-31.1,28.27-31.1ZM589.64,309.36c-.39,0-.76-.05-1.14-.06,15.45-.63,27.31-13.45,27.31-32.31,0-19.82-12.44-33.78-28.77-34.41.4-.02.78-.06,1.18-.06,16.91,0,29.92,14.19,29.92,34.47s-12.46,32.37-28.49,32.37Z"></path><path class="cls-1" d="M154.24,214.26h-21.25c-5.78,5.42-10.2,12-12.47,16.28h8.87c6.04-6.57,17.23-14.54,24.85-16.28ZM123.24,229.6c2.27-3.62,6.69-9.19,12.46-13.78h2.33c-5.77,4.59-10.2,10.16-12.46,13.78h-2.33Z"></path></g><g><path class="cls-1" d="M1378.17,236.15c-23.98,0-46.61,15.1-46.61,40.53s22.24,38.4,45.34,38.4,46.77-14.99,46.77-40.53-22.31-38.4-45.5-38.4ZM1378.72,314.79c-23.1,0-45.32-13.92-45.32-37.69,0-24.96,22.62-39.79,46.59-39.79.4,0,.8.03,1.21.04-23.55.45-45.47,15.17-45.47,39.74s21.48,37.18,44.14,37.65c-.38,0-.76.04-1.15.04ZM1376.74,243.44c16.91,0,29.94,13.68,29.94,33.23s-12.47,31.2-28.51,31.2c-16.83,0-29.7-13.67-29.7-33.33,0-18.44,12.15-31.1,28.27-31.1ZM1382.32,309.36c-.39,0-.76-.05-1.14-.06,15.45-.63,27.31-13.45,27.31-32.31,0-19.82-12.44-33.78-28.78-34.41.4-.02.78-.06,1.18-.06,16.91,0,29.92,14.19,29.92,34.47s-12.46,32.37-28.49,32.37Z"></path><path class="cls-1" d="M997.6,297.85l-14.13-49.24c-1.35-4.46,2.7-7.7,6.35-9.12v-1.62h-25.57l-23.98,57.55-24.77-57.55h-25.73v1.62c3.57,1.32,7.54,5.16,6.11,9.42l-14.13,50.56c-2.3,8.41-4.84,11.45-8.97,12.26v1.52h23.03v-1.52c-5-1.52-5-5.07-3.5-10.13l14.45-47.82,25.17,59.47h12.15l25.25-59.37,14.29,47.62c1.67,5.57.8,9.42-3.89,10.23v1.52h27.4v-1.52c-2.86-1.11-6.59-3.85-9.53-13.88ZM900.63,249.84l-14.13,49.63c-2.3,8.25-4.84,11.24-8.97,12.03,0,0,4.34-3.78,6.64-12.03l14.13-49.63c1.43-4.18-3.79-9.25-3.79-9.25,3.57,1.29,7.54,5.07,6.11,9.25ZM933.56,311.5l-23.8-55.23.97-3.15,25.16,58.38h-2.33ZM944.1,297.08l-1.18-2.7,22.83-53.8h2.33l-23.97,56.49ZM984.44,311.5s3.82-2.64,2.15-8.11l-13.91-45.53,1.36-3.15,14.28,46.74c1.67,5.47.8,9.25-3.89,10.04Z"></path><path class="cls-1" d="M1017.13,239.49c4.13,1.52,6.19,3.54,6.19,9.52v55.11c0,4.86-2.46,6.38-6.19,7.6v1.52h27.48v-1.52c-3.97-1.21-6.27-2.63-6.27-7.6v-55.11c0-5.78,2.22-8.1,6.27-9.52v-1.62h-27.48v1.62ZM1028.01,249.94v54.1c0,4.77-2.46,6.27-6.19,7.46,0,0,3.87-2.68,3.87-7.46v-54.1c0-5.87-3.87-9.35-3.87-9.35,4.13,1.49,6.19,3.48,6.19,9.35Z"></path><path class="cls-1" d="M1112.18,306.05h-28.9c-1.11,0-1.75-.71-1.75-3.14v-53.9c0-5.78,2.22-8.1,6.27-9.52v-1.62h-27.48v1.62c4.13,1.52,6.19,3.54,6.19,9.52v54.3c0,4.97-2.46,7.19-6.19,8.41v1.52h61.3l3.57-17.53h-1.27c-2.78,6.28-7.15,10.34-11.75,10.34ZM1071.18,303.25c0,4.88-2.46,7.06-6.19,8.25,0,0,3.87-3.38,3.87-8.25v-53.31c0-5.87-3.87-9.35-3.87-9.35,4.13,1.49,6.19,3.48,6.19,9.35v53.31ZM1123.35,302.68c-2.71,4.32-4.7,6.2-8.45,6.2h-2.33c4.6,0,8.97-3.98,11.75-10.15l-.97,3.95Z"></path><path class="cls-1" d="M1212.87,301.39l-32.16-63.52h-19.61v1.62c.16-.2,6.67,1.82,6.51,3.85l-29.46,57.34c-3.81,7.5-8.58,10.13-11.59,11.04v1.52h27.79v-1.52c-2.78-.91-8.42-4.05-5.96-8.81l6.67-13.37h36.45l2.94,5.88c.95,1.82,1.83,3.55,3.02,5.57,3.73,6.18-3.17,9.83-5.8,10.74v1.52h32.64v-1.52c-2.86-1.01-7.94-3.44-11.43-10.33ZM1142.77,300.66c-3.81,7.36-8.57,9.95-11.59,10.84,0,0,5.45-3.48,9.27-10.84l29.45-57.34c.16-1.99-4.18-3.65-4.18-3.65.16-.2,6.67,1.66,6.51,3.65l-29.45,57.34ZM1158.95,282.04l14.61-28.88,14.29,28.88h-28.9ZM1190.13,282.36l-13.14-26.07,1.17-2.28,14.29,28.35h-2.33ZM1196.26,311.5s7.2-4.47,3.47-10.54c-1.19-1.99-2.06-3.68-3.02-5.47l-2.94-5.77h2.33l2.94,5.77c.95,1.79,1.83,3.48,3.02,5.47,3.73,6.07-3.17,9.65-5.79,10.54Z"></path><path class="cls-1" d="M1298.15,239.49c3.73,1.42,6.35,3.34,6.35,8.51v43.77l-52.41-53.9h-20.89v1.62c3.73,1.52,6.12,3.54,6.35,8.1v55.72c0,4.76-2.46,7.19-6.35,8.41v1.52h23.11v-1.52c-3.73-1.21-6.27-3.54-6.27-8.41v-48.43l56.22,58.36h10.72v-65.25c0-4.96,2.3-6.99,6.27-8.51v-1.62h-23.11v1.62ZM1242.13,303.25c0,4.67-2.46,7.06-6.35,8.25,0,0,4.03-3.58,4.03-8.25v-54.7c-.24-4.48-4.03-7.96-4.03-7.96,3.73,1.49,6.11,3.48,6.35,7.96v54.7ZM1305.06,311.01l-53.87-54.92v-2.37l56.19,57.29h-2.33ZM1309.04,248.94v42.97l-2.33-2.35v-40.62c0-5.07-4.03-8.35-4.03-8.35,3.73,1.39,6.35,3.28,6.35,8.35Z"></path><path class="cls-1" d="M1204.72,214.26h-21.25c-5.78,5.42-10.2,12-12.47,16.28h8.87c6.04-6.57,17.23-14.54,24.85-16.28ZM1174.62,229.42c2.27-4.2,5.34-8.28,11.12-13.6h2.33c-5.77,5.32-9.81,9.4-12.08,13.6h-1.36Z"></path></g><g><g><path class="cls-1" d="M786.89,232.39c-1.13-.13-4.26-.26-6.03-.98-3.69-1.51-8.01-1.3-11.21,3.09-1.58,2.16-2.31,3.3-3.61,4.71-4.77-4.3-13-9.47-19.19-13.1-3.87-2.27-8.02-3.88-12.32-4.76-5.35-1.1-13.44-4.22-13.74-4.08,2.86,2.17,5.14,6.48,8.49,7.13,1.6.31,2.7.69,4.04,2.56,1.78,2.47,3.19,2.17,5.53,2.68,1.12.25,3.23,4.66,4.77,5.03,1.82.44,3.16,1.81,4.03,3.02-5.98-.06-12.75.47-19.22,2.31-17.7,5.01-28.23,4-28.23,4,0,0,15.48,6.5,24.24,5.58,8.77-.92,11.64,4.7,17.14,3.88,6.76-1.01,11.43-.66,13.77-.33-.43.9-.81,1.91-1.32,2.95-8.11,16.71-15.1,15.25-22.94,23.46-6.03,1.86-11.78,4.34-16.61,8.82,6.18-2.84,18.86-8.71,25.04-11.55,0-.01-.03-.02-.06-.02,1.51-.68,3.03-1.42,4.53-2.19-2.99,2.98-5.3,7.03-5.45,11.36-1.94,3.37-3.71,7.67-4.2,12.56,2.45-5.02,5.62-10.92,8.36-16.3,1.63-3.2,4.88-6.22,7.11-9.06,2.76-3.52,5.28-6.45,9.33-8.46,2.63-1.31,5.3-2.54,7.76-4.15,6.69-4.39,10.34-11.1,10.67-19.1,0,0,.94-6.3,9.31-8.81.12-.04.11-.21-.02-.22ZM726.04,220.17c11.56,1.88,17.56,9.56,17.56,9.56-6.66-4.44-17.56-9.56-17.56-9.56ZM743.95,278.83s-.04.04-.06.06c.08-.12.17-.24.25-.37-.06.1-.12.2-.19.31ZM727.39,242.63c16.35-4.89,26.02,1.5,26.02,1.5-7.32-2.28-26.02-1.5-26.02-1.5ZM742.97,238.61c11.19-1.57,18.98,6.7,18.98,6.7-5.75-3.79-18.98-6.7-18.98-6.7ZM775.09,232.97c-.54-.09-1.9,1.51-2.21,1.92-.75.97-1.35,2.04-1.9,3.12-3.04,5.99-6.1,12.17-10.91,16.99-2.05,2.06-4.32,3.91-6.65,5.65.55-.58,1.48-1.41,2.01-1.98,1.75-1.87,3.32-3.89,4.76-6,1.85-2.7,3.34-5.63,4.8-8.55,1.43-2.85,3.08-5.86,5.04-8.4,2.32-3,5.3-5.08,9.17-4-.44.94-3.1,1.42-4.12,1.24Z"></path><g><path class="cls-1" d="M783.56,256.66c1.24-.47,2.55-.64,3.76-1.18-.68-.35-1.08-.33-1.51-.3-.83.05-1.63.28-2.43.5.41-.49.92-.89,1.36-1.35.7-.72,1.23-1.57,1.79-2.39.46-.67.91-1.33,1.34-2.01.02-.03.29-.42.25-.45-.34-.26-.42-.06-.67.2-.24.26-.47.52-.71.79-1.36,1.52-2.75,3.08-4.37,4.34-5.46,4.23-11.66,7.52-17.67,10.88-2.87,1.61-6.12,2.98-8.6,5.18-.61,1.72.05,2.68.06,2.85,2.7-2.73,5.94-4.54,9.28-6.37,8.82-4.86,9.6-6.35,14.65-9.07,1.13-.61,2.29-1.16,3.48-1.61ZM770.24,263.37c.73-.76,1.68-1.07,2.63-1.38-.85.52-1.57,1.29-2.63,1.38Z"></path><path class="cls-1" d="M784.88,246.54c-.39-2.46-1-4.88-1.52-7.32-3.08,4.78-4.09,9.85-2.11,15.2,2.74-1.6,4.17-4.43,3.63-7.88ZM782.65,244.27c.41,3.9.19,6.18-.71,7.3-.14-1.1.36-6.27.71-7.3Z"></path><path class="cls-1" d="M793.84,249.75c-1.68-.02-3.33.54-4.74,1.44-.72.46-1.38,1.01-1.98,1.62-.12.13-1.3,1.64-1.31,1.64.22.03.47.17.68.24.47.16.95.27,1.43.43.97.33,2.05.34,3.03.03.05-.02.1-.03.14-.05,1.22-.43,2.19-1.33,2.96-2.35.39-.51.71-1.06,1.03-1.61.06-.11.61-1.21.7-1.2,0,0-1.26-.17-1.93-.18ZM788.02,253.6c1.87-.92,3.74-1.85,5.62-2.77-1.61,1.5-3.48,2.43-5.62,2.77Z"></path><path class="cls-1" d="M786.17,261.62c-1.63-.34-3.16-1-4.84-1.18-1.61-.16-4.27,0-5.22,1.57.15-.25,2.81,1.47,3.06,1.63,2.23,1.35,4.69,1.18,6.65-.6.44-.4.95-.71,1.64-1.23-.18.14-1.08-.14-1.3-.19ZM778.7,261.6c1.88-.14,3.64.43,5.46.76-1.84.32-4.18-.05-5.46-.76Z"></path><path class="cls-1" d="M787.79,248.35c.35-.09.72-.08,1.08-.16.75-.17,1.46-.52,2.06-1,.94-.76,1.56-1.85,1.84-3.03.28-1.2.14-2.36-.1-3.56,0-.01-.02-.07-.02-.08-.41.88-1.32,1.6-2,2.25-.94.89-1.97,1.74-2.82,2.71-.17.19-.33.39-.47.61-.06.09-.12.19-.18.29-.43.75-.58,1.56-.45,2.41-.01-.09.96-.41,1.07-.44ZM791,243.91c-1.12,1.02-1.98,2.28-3.25,3.44.82-1.59,2.02-2.52,3.25-3.44Z"></path></g></g><g><path class="cls-1" d="M751.56,344.04h-1.5l-.37-.68c-4.28-9.31-3.44-16.17-2.04-20.22-9.68,6.16-35.2,20.48-50.54,11.47-9.69-5.7-13.36-19.62-10.93-41.39,3.92-35.04-.58-58.29-5.04-71.64-3.1-9.26-6.85-15.94-10.4-20.38-7.41.42-12.04-.75-13.74-2.93-1.12-1.43-.96-3.21.45-4.87,1.47-1.73,3.9-2.04,6.67-.85,2.25.97,4.89,3.01,7.61,6.2,13.08-.95,36.37-6.73,71.95-24.21.13-.07,1.49-.81,3.78-1.79-3.92-1.31-8.82-2.6-14.23-3.24-16.96-1.99-30.97,3.01-41.67,14.86,3.4.47,10.53.32,13.77-8.21l2.19.83c-5.02,13.25-18.37,9.28-18.51,9.24l-1.69-.52,1.14-1.35c7.85-9.34,22.05-19.9,45.12-17.17,6.88.82,12.88,2.61,17.2,4.22,4.32-1.61,10.32-3.41,17.2-4.22,12.74-1.51,30.9.24,45.12,17.17l1.14,1.35-1.69.52c-.13.04-13.48,4.01-18.51-9.23l2.19-.83c3.24,8.53,10.38,8.68,13.77,8.21-10.72-11.87-24.75-16.87-41.75-14.85-5.39.64-10.27,1.92-14.16,3.23,2.31.99,3.68,1.73,3.83,1.82,35.55,17.45,58.83,23.23,71.9,24.18,2.72-3.19,5.36-5.23,7.61-6.2,2.77-1.19,5.2-.89,6.67.85,1.41,1.66,1.57,3.44.45,4.87-1.7,2.18-6.34,3.35-13.74,2.93-3.55,4.44-7.3,11.12-10.4,20.38-4.46,13.34-8.96,36.6-5.04,71.64,2.44,21.77-1.24,35.7-10.93,41.39-3.5,2.06-7.53,2.9-11.78,2.9-14.38,0-31.28-9.62-38.75-14.36,1.4,4.06,2.24,10.92-2.04,20.22l-.31.68ZM750.78,321.76c-1.38,2.6-3.54,8.77,0,18.14,3.54-9.36,1.38-15.54,0-18.14ZM673.5,200.98c10.18,13.7,20.51,43.38,15.01,92.49-2.32,20.77.97,33.92,9.78,39.11,16.71,9.82,48.45-11.58,51.58-13.74l.67-.81.24.17.24-.17.67.81c3.13,2.16,34.88,23.56,51.58,13.74,8.82-5.18,12.11-18.34,9.78-39.11-5.5-49.11,4.83-78.79,15.01-92.49-14.78-1.46-38.83-8.44-71.21-24.34-.07-.04-2.33-1.25-6.07-2.7-3.73,1.44-5.97,2.65-6.02,2.68-32.41,15.92-56.47,22.9-71.25,24.36ZM832.83,198.88c5.75.1,8.95-.87,9.88-2.06.16-.21.59-.76-.39-1.91-1.03-1.22-2.92-.65-3.95-.21-1.6.69-3.5,2.06-5.53,4.18ZM661,194.17c-.65,0-1.29.19-1.75.74-.98,1.16-.55,1.71-.39,1.91.93,1.19,4.13,2.17,9.88,2.06-2.03-2.12-3.93-3.49-5.53-4.18-.57-.25-1.4-.53-2.2-.53Z"></path><path class="cls-1" d="M663.48,207.83c15.06,16.85,18.51,40.96,18.74,62.8.08,17.78-5.44,35.85-.83,53.22,4.29,16.7,20.36,21.88,36.18,19.05,7.8-1.22,15.34-4.1,22.84-6.96-7.06,3.8-14.4,7.3-22.39,9.22-12.07,3.02-26.55,1.44-34.95-8.74-5.56-6.6-7.47-15.33-8.03-23.68-.94-16.22,3.48-32.03,2.96-48.1-.26-19.64-2.95-40.35-14.51-56.81h0Z"></path><path class="cls-1" d="M839.42,207.83c-11.56,16.46-14.25,37.16-14.51,56.81-.52,16.07,3.9,31.88,2.96,48.1-.56,8.35-2.48,17.08-8.03,23.68-8.4,10.18-22.87,11.76-34.95,8.74-7.98-1.92-15.32-5.42-22.39-9.22,7.5,2.86,15.04,5.75,22.84,6.96,15.83,2.82,31.87-2.33,36.18-19.05,4.61-17.37-.91-35.44-.83-53.22.23-21.84,3.68-45.95,18.74-62.8h0Z"></path><path class="cls-1" d="M831.3,189.33c-20.09-23.12-48.95-35.29-78.77-24.33-.26,0-1.46,0-1.74,0h-.36s-.42-.13-.42-.13c-10.22-3.56-21.26-4.93-31.99-3.21-18.24,3.02-34.38,13.83-46.41,27.67,4.06-6.35,9.3-11.89,15.06-16.75,18.33-15.47,42.19-20.27,64.89-12.13,0,0-.77-.13-.77-.13h1.34s-.77.14-.77.14c14.53-5.11,30.95-5.42,45.32.43,14.13,5.66,26.28,15.82,34.62,28.45h0Z"></path></g></g></g><g><path class="cls-1" d="M330.5,426.66h-19.72v4.58h14.55c-1.27,4.66-5.65,7.51-11.67,7.51-9.25,0-14.55-4.12-14.55-11.32s5.22-11.32,13.29-11.32c5.78,0,10.4,2,13.02,5.64l1.41,1.96v-7.75l-.29-.23c-3.6-2.87-8.36-4.33-14.14-4.33-10.84,0-18.13,6.44-18.13,16.03s7.25,16.02,19.39,16.02c5.35,0,9.97-1.74,12.99-4.9,2.74-2.87,4.08-6.73,3.88-11.16l-.03-.74Z"></path><path class="cls-1" d="M355.11,411.41c-11.52,0-18.97,6.29-18.97,16.03s7.45,16.02,18.97,16.02,18.97-6.29,18.97-16.02-7.45-16.03-18.97-16.03ZM355.11,438.76c-8.72,0-14.13-4.34-14.13-11.32s5.42-11.32,14.13-11.32,14.13,4.34,14.13,11.32-5.41,11.32-14.13,11.32Z"></path><path class="cls-1" d="M408.91,427.44c0,8.14-3.27,11.32-11.65,11.32s-11.65-3.17-11.65-11.32v-15.48h-4.71v15.48c0,10.93,5.2,16.02,16.36,16.02s16.36-5.09,16.36-16.02v-15.48h-4.71v15.48Z"></path><path class="cls-1" d="M453.3,420.3c0-6.07-4.25-8.26-16.24-8.34h-15.14v30.96h4.71v-14.28h8.54l13.23,14.28h6.62l-13.4-14.46c8.48-.61,11.68-2.9,11.68-8.16ZM426.63,416.54h10.22c9.71,0,11.61,1.38,11.61,3.76s-1.9,3.75-11.61,3.75h-10.22v-7.51Z"></path><polygon class="cls-1" points="483.55 437.49 466.02 411.96 461.68 411.96 461.68 442.92 466.39 442.92 466.39 420.72 481.63 442.92 485.47 442.92 500.7 420.72 500.7 442.92 505.41 442.92 505.41 411.96 501.07 411.96 483.55 437.49"></polygon><polygon class="cls-1" points="519.05 428.64 538.03 428.64 538.03 424.05 519.05 424.05 519.05 416.54 542.23 416.54 542.23 411.96 514.34 411.96 514.34 442.92 543.07 442.92 543.07 438.34 519.05 438.34 519.05 428.64"></polygon><polygon class="cls-1" points="549.48 416.54 561.37 416.54 561.37 442.92 566.07 442.92 566.07 416.54 577.92 416.54 577.92 411.96 549.48 411.96 549.48 416.54"></polygon><polygon class="cls-1" points="597.76 416.54 609.65 416.54 609.65 442.92 614.36 442.92 614.36 416.54 626.2 416.54 626.2 411.96 597.76 411.96 597.76 416.54"></polygon><path class="cls-1" d="M642.28,411.96l-15.74,30.96h5.28l3.57-7.06h18.26l3.59,7.06h5.28l-15.74-30.96h-4.49ZM644.53,417.94l6.79,13.33h-13.58l6.79-13.33Z"></path><path class="cls-1" d="M696,425.86c2.93-1.16,4.31-2.96,4.31-5.56,0-6.07-4.25-8.26-16.24-8.34h-15.14v30.96h15.15c13.84-.09,18.75-2.55,18.75-9.43,0-3.89-2.13-6.32-6.83-7.63ZM683.87,424.05h-10.22v-7.51h10.22c9.71,0,11.61,1.38,11.61,3.76s-1.9,3.75-11.61,3.75ZM673.64,428.64h10.22c11.82,0,14.13,1.78,14.13,4.85s-2.31,4.85-14.13,4.85h-10.22v-9.7Z"></path><polygon class="cls-1" points="715.21 411.96 710.5 411.96 710.5 442.92 735.04 442.92 735.04 438.34 715.21 438.34 715.21 411.96"></polygon><polygon class="cls-1" points="746.37 428.64 765.35 428.64 765.35 424.05 746.37 424.05 746.37 416.54 769.55 416.54 769.55 411.96 741.66 411.96 741.66 442.92 770.39 442.92 770.39 438.34 746.37 438.34 746.37 428.64"></polygon><polygon class="cls-1" points="819.71 411.96 811.18 435.29 802.66 411.96 798.2 411.96 789.68 435.29 781.15 411.96 776.13 411.96 787.45 442.92 791.9 442.92 800.43 419.59 808.96 442.92 813.41 442.92 824.73 411.96 819.71 411.96"></polygon><path class="cls-1" d="M839.29,411.96l-15.74,30.96h5.28l3.57-7.06h18.26l3.59,7.06h5.28l-15.74-30.96h-4.49ZM841.54,417.94l6.79,13.33h-13.58l6.79-13.33Z"></path><path class="cls-1" d="M897.32,420.3c0-6.07-4.25-8.26-16.24-8.34h-15.14v30.96h4.71v-14.28h8.54l13.23,14.28h6.62l-13.4-14.46c8.48-.61,11.68-2.9,11.68-8.16ZM870.65,416.54h10.22c9.71,0,11.61,1.38,11.61,3.76s-1.9,3.75-11.61,3.75h-10.22v-7.51Z"></path><polygon class="cls-1" points="910.42 428.64 929.4 428.64 929.4 424.05 910.42 424.05 910.42 416.54 933.6 416.54 933.6 411.96 905.71 411.96 905.71 442.92 934.44 442.92 934.44 438.34 910.42 438.34 910.42 428.64"></polygon><path class="cls-1" d="M992.85,426.87c-.36,0-.69.13-.98.39-.21.19-.37.38-.48.61-.58,1.23-1.4,2.21-2.43,2.9-1.04.69-2.1,1.02-3.24,1.02-.55,0-1.08-.09-1.54-.25l-6.62-1.9c-.6-.19-1.25-.29-1.91-.29-.34,0-.78.05-1.31.14-.51.09-1,.21-1.48.36-.51.16-.96.35-1.34.57-.56.31-.89.71-.99,1.18-.12.53.03.88.19,1.08.16.2.45.43.99.43.29,0,.57-.07.85-.21,1-.5,1.99-.76,2.93-.76.36,0,.76.07,1.22.22l1.96.55c-.25.93-.66,1.82-1.22,2.65-.68,1.01-1.5,1.9-2.44,2.64-.94.74-2,1.33-3.12,1.75-2.06.76-4.22.89-6.2.04-.91-.39-1.69-.94-2.34-1.64-.65-.7-1.12-1.52-1.44-2.5-.3-.94-.34-2-.08-3.15.21-1.01.57-1.96,1.07-2.84.5-.87,1.12-1.64,1.86-2.28.72-.63,1.57-1.13,2.53-1.49.96-.36,2.01-.54,3.11-.54.5,0,.65.06.77.1l.66.16c.17.08.35.12.59.12.75,0,1.28-.49,1.41-1.21.1-.31.08-.64-.07-.9-.16-.3-.45-.5-.85-.6l-3.03-.83c-.89-.28-1.55-.77-2.01-1.5-.44-.7-.54-1.69-.27-2.94.17-.87.48-1.62.91-2.25.43-.62.97-1.16,1.6-1.58.64-.43,1.37-.75,2.16-.97,1.55-.42,3.44-.47,4.81.04.63.24,1.12.57,1.51,1.02s.66.99.82,1.62c.15.63.13,1.39-.06,2.23-.16.64.1,1.05.27,1.23.75.84,1.35.52,1.89.08.28-.23.48-.54.58-.96.28-1.28.29-2.45.04-3.48-.25-1.03-.72-1.92-1.37-2.66-.66-.74-1.49-1.3-2.48-1.68-1.94-.74-4.41-.7-6.58-.11-1.1.3-2.11.76-3.02,1.36-.92.61-1.72,1.41-2.39,2.37-.67.96-1.15,2.11-1.43,3.42-.31,1.51-.23,2.91.24,4.17.27.72.69,1.33,1.24,1.83-.41.15-.8.32-1.19.52-.97.51-1.87,1.17-2.69,1.96-.8.79-1.51,1.72-2.09,2.78-.58,1.05-1.01,2.21-1.28,3.43-.3,1.51-.29,2.95.05,4.27.34,1.33.94,2.51,1.8,3.51.85.99,1.93,1.78,3.19,2.35,1.26.56,2.65.84,4.16.84s2.93-.27,4.36-.8c1.42-.52,2.76-1.26,3.96-2.19,1.21-.93,2.26-2.04,3.13-3.31.72-1.05,1.26-2.16,1.63-3.33l2,.61c.69.22,1.46.33,2.29.33,1.79,0,3.44-.56,4.92-1.67,1.43-1.07,2.57-2.44,3.37-4.04.12-.22.18-.42.16-.46.11-.57-.06-.93-.23-1.13-.16-.2-.46-.43-1-.43Z"></path><path class="cls-1" d="M1026.66,411.96h-15.14v30.96h15.15c12.09-.09,18.75-5.58,18.75-15.48s-6.66-15.4-18.76-15.48ZM1016.23,416.54h10.22c9.11,0,14.13,3.87,14.13,10.9s-5.02,10.9-14.13,10.9h-10.22v-21.79Z"></path><polygon class="cls-1" points="1057.58 428.64 1076.57 428.64 1076.57 424.05 1057.58 424.05 1057.58 416.54 1080.77 416.54 1080.77 411.96 1052.87 411.96 1052.87 442.92 1081.61 442.92 1081.61 438.34 1057.58 438.34 1057.58 428.64"></polygon><path class="cls-1" d="M1107.19,438.76c-9.37,0-14.97-4.23-14.97-11.32s5.22-11.32,13.29-11.32c5.76,0,10.76,2.15,13.04,5.61l1.43,2.17v-7.94l-.3-.23c-3.5-2.7-8.8-4.32-14.17-4.32-10.84,0-18.13,6.44-18.13,16.03s7.59,16.02,19.81,16.02c5.26,0,10.15-1.53,13.75-4.32l.3-.23v-7.94l-1.43,2.17c-2.35,3.57-6.95,5.61-12.62,5.61Z"></path><path class="cls-1" d="M1146.2,411.41c-11.52,0-18.97,6.29-18.97,16.03s7.45,16.02,18.97,16.02,18.97-6.29,18.97-16.02-7.45-16.03-18.97-16.03ZM1146.2,438.76c-8.72,0-14.13-4.34-14.13-11.32s5.42-11.32,14.13-11.32,14.13,4.34,14.13,11.32-5.41,11.32-14.13,11.32Z"></path><path class="cls-1" d="M1192.32,428.46c8.48-.61,11.68-2.9,11.68-8.16,0-6.07-4.25-8.26-16.24-8.34h-15.14v30.96h4.71v-14.28h8.54l13.23,14.28h6.62l-13.4-14.46ZM1177.33,416.54h10.22c9.71,0,11.61,1.38,11.61,3.76s-1.9,3.75-11.61,3.75h-10.22v-7.51Z"></path></g></svg> 